<?xml version="1.0" encoding="utf-8"?>
<!-- Generator: Adobe Illustrator 16.0.0, SVG Export Plug-In . SVG Version: 6.00 Build 0)  -->
<!DOCTYPE svg PUBLIC "-//W3C//DTD SVG 1.1//EN" "http://www.w3.org/Graphics/SVG/1.1/DTD/svg11.dtd">
<svg version="1.1" id="Layer_1" xmlns="http://www.w3.org/2000/svg" xmlns:xlink="http://www.w3.org/1999/xlink" x="0px" y="0px"
	 width="1024px" height="1024px" viewBox="0 0 1024 1024" enable-background="new 0 0 1024 1024" xml:space="preserve">
<path fill="#3D3D3D" d="M331.865,759.17c-10.476,0-18.999-8.523-18.999-18.999c0-10.475,8.522-18.996,18.999-18.996h161.136v-130.13
	h-41.045c-10.476,0-18.999-8.523-18.999-18.999s8.523-18.999,18.999-18.999h120.091c10.476,0,18.999,8.523,18.999,18.999
	s-8.523,18.999-18.999,18.999h-41.048v130.13h161.137c10.476,0,18.998,8.521,18.998,18.996c0,10.476-8.522,18.999-18.998,18.999
	H331.865z M390.37,691.763c-4.549,0-8.943-1.632-12.388-4.597c-49.111-40.217-77.218-99.683-77.124-163.169
	c0-109.856,83.731-200.658,192.144-210.29v-29.878c0-10.476,8.523-18.999,18.999-18.999c10.476,0,18.999,8.523,18.999,18.999v29.878
	c108.412,9.632,192.144,100.434,192.144,210.3c0,56.415-21.967,109.436-61.854,149.295c-4.863,4.876-10.026,9.561-15.336,13.919
	c-3.369,2.8-7.679,4.355-12.104,4.355c-2.276,0-4.513-0.404-6.646-1.2c-6.364-2.382-10.998-8.02-12.1-14.718
	c-1.103-6.696,1.482-13.521,6.745-17.811c4.328-3.552,8.57-7.396,12.591-11.415c32.295-32.201,50.773-76.818,50.705-122.415
	c0-95.483-77.672-173.155-173.146-173.155c-95.473,0-173.146,77.672-173.146,173.144c0,46.245,18.01,89.729,50.711,122.439
	c3.995,3.984,8.218,7.814,12.546,11.379c5.402,4.248,8.093,11.086,7.03,17.876c-1.073,6.832-5.773,12.545-12.266,14.911
	C394.784,691.376,392.595,691.763,390.37,691.763z"/>
</svg>
