<?xml version="1.0" encoding="utf-8"?>
<!-- Generator: Adobe Illustrator 16.0.0, SVG Export Plug-In . SVG Version: 6.00 Build 0)  -->
<!DOCTYPE svg PUBLIC "-//W3C//DTD SVG 1.1//EN" "http://www.w3.org/Graphics/SVG/1.1/DTD/svg11.dtd">
<svg version="1.1" id="Layer_1" xmlns="http://www.w3.org/2000/svg" xmlns:xlink="http://www.w3.org/1999/xlink" x="0px" y="0px"
	 width="1024px" height="1024px" viewBox="0 0 1024 1024" enable-background="new 0 0 1024 1024" xml:space="preserve">
<g>
	<g>
		<defs>
			<rect id="SVGID_1_" x="265.021" y="240" width="482.187" height="552"/>
		</defs>
		<clipPath id="SVGID_2_">
			<use xlink:href="#SVGID_1_"  overflow="visible"/>
		</clipPath>
		<path clip-path="url(#SVGID_2_)" d="M425.038,245.258c-32.605,6.641-39.901,11.966-39.901,31.883
			c0,16.63,0.655,16.63,35.235,11.963c46.542-7.296,163.622-4.667,184.197,4.013c23.271,8.676,32.605,25.964,37.273,67.84
			c5.324,46.543-9.334,64.489-51.868,64.489c-15.973,0.658-63.173,1.971-106.43,3.351c-97.095,3.354-101.104,0-102.42-73.166
			c-0.658-26.623-2.629-51.21-5.326-55.877c-7.295-11.963-29.251-8.612-37.272,5.325c-7.296,14.66-8.676,77.833-1.313,113.726
			c7.954,41.875,22.614,55.222,64.489,58.509c31.226,2.629,35.893,4.667,28.594,12.621c-18.605,22.614-83.157,48.578-122.337,48.578
			c-31.29,0-45.885,12.625-39.247,33.264c6.641,21.301,49.239,18.604,125.691-8.612c25.245-9.334,81.778-53.902,95.782-76.452
			c11.304-17.288,12.621-17.946,77.832-17.288c81.12,0.658,106.43-7.296,119.709-39.902c11.962-28.596,12.62-47.201,2.695-88.418
			c-16.697-69.288-25.967-79.213-82.503-93.872C577.942,239.275,460.93,237.962,425.038,245.258L425.038,245.258z M425.038,245.258"
			/>
		<path clip-path="url(#SVGID_2_)" d="M423.658,343.669c-3.354,4.667-5.325,13.279-4.01,19.917
			c1.971,10.65,10.647,11.966,85.128,11.966l83.159-0.658l1.974-17.946c2.628-21.301,7.296-19.92-87.103-20.643
			C453.634,335.715,428.325,338.344,423.658,343.669L423.658,343.669z M423.658,343.669"/>
		<path clip-path="url(#SVGID_2_)" d="M538.763,485.991c-11.962,4.667-14.659,9.993-11.962,22.614
			c2.628,15.317-4.668,21.956-71.195,65.806c-46.543,31.289-88.416,53.181-113.726,60.544
			c-73.824,21.297-87.761,31.947-69.814,53.18c27.939,33.265,151.656-29.254,284.643-144.294
			c28.597-24.585,53.84-23.273,66.527,2.631c6.642,14.66,13.279,18.602,30.567,18.602c47.859,0,62.519,55.223,27.939,105.773
			c-34.577,49.895-94.464,72.508-136.339,51.211c-18.604-9.993-21.301-9.993-24.588-0.658c-5.325,12.621,7.954,45.227,24.588,60.544
			c25.242,22.613,99.724-0.657,152.972-48.515c33.918-30.57,45.227-51.867,48.515-93.085
			c5.981-74.481-51.211-143.638-127.662-152.313c-17.289-1.975-38.589-4.667-47.86-5.325
			C562.034,481.324,547.375,482.636,538.763,485.991L538.763,485.991z M538.763,485.991"/>
	</g>
	<path d="M566.638,603.729C476.906,674.855,401.044,717.39,327.22,737.37c-43.255,11.967-45.885,53.842-3.354,53.842
		c25.968,0,100.449-31.95,141.009-60.547c20.575-14.659,42.53-25.965,48.513-25.965c5.984,0,11.309-4.009,11.309-8.676
		c0-5.325,17.288-23.93,37.932-41.875c61.855-53.186,63.83-55.22,54.561-66.528C606.539,574.41,602.594,575.79,566.638,603.729
		L566.638,603.729z M566.638,603.729"/>
</g>
</svg>
