<?xml version="1.0" encoding="utf-8"?>
<!-- Generator: Adobe Illustrator 16.0.0, SVG Export Plug-In . SVG Version: 6.00 Build 0)  -->
<!DOCTYPE svg PUBLIC "-//W3C//DTD SVG 1.1//EN" "http://www.w3.org/Graphics/SVG/1.1/DTD/svg11.dtd">
<svg version="1.1" id="Layer_1" xmlns="http://www.w3.org/2000/svg" xmlns:xlink="http://www.w3.org/1999/xlink" x="0px" y="0px"
	 width="1024px" height="1024px" viewBox="0 0 1024 1024" enable-background="new 0 0 1024 1024" xml:space="preserve">
<path fill="#040000" stroke="#040000" stroke-miterlimit="10" d="M712.267,367.969c0-21.081-13.172-50.067-42.158-57.973
	c-28.987-7.905-42.163,13.177-47.435,31.625c-5.271,21.077-18.443,192.364-18.443,192.364s0,7.902-5.271,5.269
	c-2.638,0-2.638,0-2.638-5.269c0-5.272,21.081-210.812,21.081-237.164c0-26.349-23.714-50.063-52.701-50.063
	c-28.986-2.638-36.892,26.348-36.892,42.158c0,15.814-10.539,242.429-10.539,242.429s0,5.271-2.637,5.271
	c-2.634,0-5.267-2.631-5.267-5.271c0-2.632,7.903-221.348,10.538-239.791c0-18.448-21.082-36.892-44.797-39.528
	c-23.714,0-36.891,13.176-36.891,26.352l2.634,250.335c0,0-23.714-71.15-76.416-71.15c-50.068,0-52.701,39.529-52.701,55.338
	c0,15.812,13.171,44.798,36.89,44.798c23.715,0,23.715-2.636,42.159-2.636c18.448,0,34.259,10.539,34.259,31.621
	c0,21.08-5.271,31.621-13.177,31.621c-5.267,0-10.539-7.906-10.539-13.173c0-5.271,2.633-7.91,2.633-18.448
	c0-10.537-7.905-28.985-34.254-28.985c-28.985,0-31.624,42.163-31.624,55.338c0,13.172,2.638,73.782,52.701,115.94
	c50.068,42.163,89.597,47.435,126.488,47.435c36.892,0,81.688-10.539,113.31-44.795c36.89-36.894,34.256-115.947,34.256-115.947
	s10.539-15.808,15.812-34.258C688.552,560.33,712.267,389.051,712.267,367.969"/>
</svg>
