<?xml version="1.0" standalone="no"?><!DOCTYPE svg PUBLIC "-//W3C//DTD SVG 1.1//EN" "http://www.w3.org/Graphics/SVG/1.1/DTD/svg11.dtd"><svg t="1691237006914" class="icon" viewBox="0 0 1024 1024" version="1.1" xmlns="http://www.w3.org/2000/svg" p-id="2946" xmlns:xlink="http://www.w3.org/1999/xlink" width="200" height="200"><path d="M749.079 621.195a309.511 309.511 0 0 0-7.716-18.943c-4.041-9.098-8.274-18.259-12.348-27.093v-0.657c-36.448-78.937-75.195-158.929-115.913-237.738l-1.643-3.284c-3.941-8.077-8.209-16.418-12.808-24.626-4.924-9.524-10.834-19.637-18.716-29.061-17.765-20.294-41.735-31.46-68.005-31.46s-50.044 11.166-67.383 31.525a157.995 157.995 0 0 0-18.847 29.029c-4.435 8.274-8.769 16.68-12.937 24.792l-1.645 2.956a6245.558 6245.558 0 0 0-115.914 237.771l-0.59 1.147c-3.941 8.703-8.145 17.667-12.084 26.601-2.627 5.975-5.354 12.346-7.719 18.978-6.896 19.374-9.193 37.896-6.238 56.646 5.583 39.076 31.853 72.667 68.301 87.543a112.782 112.782 0 0 0 56.807 7.455c17.733-1.972 35.464-7.882 52.869-17.733 21.343-11.822 42.359-29.552 65.346-54.511 22.985 25.285 44.001 42.688 65.346 54.84 17.402 9.852 35.136 15.762 52.538 18.059a113.833 113.833 0 0 0 56.808-7.224c36.634-14.96 62.617-48.187 68.3-87.346 2.629-18.716 0.656-37.104-6.237-56.479l0.428-1.187z m-26.992 51.885a78.151 78.151 0 0 1-47.94 61.207 83.04 83.04 0 0 1-40.225 5.254 110.722 110.722 0 0 1-40.229-13.791c-18.944-10.837-38.155-27.251-59.762-51.226 34.414-42.688 55.891-81.763 63.835-116.571 3.612-16.091 4.399-31.195 2.299-44.985a86.152 86.152 0 0 0-13.99-36.122c-16.09-22.986-43.771-36.776-74.144-36.776-30.343 0-58.056 13.79-74.147 37.433-7.225 10.507-11.92 22.329-13.957 35.794-2.099 13.788-1.312 28.894 2.301 44.656 7.881 34.809 29.389 73.883 63.768 116.571-21.672 23.975-41.045 40.389-59.763 50.898-13.789 7.882-26.925 12.476-40.39 13.791-14.119 1.643-27.91 0-40.388-5.256a78.027 78.027 0 0 1-47.944-61.076c-1.969-13.462-0.655-26.27 4.598-40.717 1.643-5.255 3.94-10.508 6.569-16.42 3.611-8.535 7.881-17.401 11.821-25.94l0.327-0.986c36.122-78.478 74.87-157.945 115.258-236.423l1.642-3.284c3.941-8.209 8.211-16.418 12.479-24.3 4.269-8.209 8.863-16.418 14.776-23.315 11.165-12.806 25.612-19.702 41.702-19.702 16.42 0 30.867 6.896 41.704 19.702 5.91 6.896 10.181 14.776 14.775 23.315a834.352 834.352 0 0 1 12.479 23.973l1.644 3.283c40.388 78.479 79.137 157.946 115.257 236.425l0.328 0.658c3.941 8.537 8.208 17.732 12.148 26.596 2.629 5.912 4.926 11.165 6.897 16.42 4.924 14.447 6.566 27.255 4.596 40.717l1.676 0.197z m-210.155-24.464c-28.437-36.186-46.694-69.712-53.098-97.855a86.981 86.981 0 0 1-1.838-32.178c1.311-8.342 4.136-15.762 8.469-22.101 9.854-14.284 27.19-22.855 46.467-22.855 19.274 0 36.646 8.867 46.463 22.986 4.366 6.569 7.224 13.793 8.473 22.003 1.479 9.521 0.854 20.685-1.838 32.178-6.403 28.241-24.63 61.733-53.098 97.856v-0.034z m0 0" p-id="2947"></path></svg>