<?xml version="1.0" encoding="utf-8"?>
<!-- Generator: Adobe Illustrator 16.0.0, SVG Export Plug-In . SVG Version: 6.00 Build 0)  -->
<!DOCTYPE svg PUBLIC "-//W3C//DTD SVG 1.1//EN" "http://www.w3.org/Graphics/SVG/1.1/DTD/svg11.dtd">
<svg version="1.1" id="Layer_1" xmlns="http://www.w3.org/2000/svg" xmlns:xlink="http://www.w3.org/1999/xlink" x="0px" y="0px"
	 width="1024px" height="1024px" viewBox="0 0 1024 1024" enable-background="new 0 0 1024 1024" xml:space="preserve">
<g>
	<g>
		<defs>
			<rect id="SVGID_1_" x="153" y="222.624" width="726" height="577.376"/>
		</defs>
		<clipPath id="SVGID_2_">
			<use xlink:href="#SVGID_1_"  overflow="visible"/>
		</clipPath>
		<path clip-path="url(#SVGID_2_)" d="M604.368,580.649c48.505-89.442,66.104-174.404,66.104-174.404H507.471v-62.584h193.895
			v-26.857H507.471v-93.925h-88.158v93.925H243.116v26.857h176.196v62.584H269.574v26.857h304c0,4.469,0,4.469-4.429,8.952
			c0,31.338-22.03,76.014-39.644,111.821c-224.699-89.432-290.804-35.807-308.429-26.859
			c-149.821,107.352-8.838,241.468,13.195,237.087C392.851,799.924,494.18,732.761,564.725,647.8
			c4.42,4.479,8.849,4.479,13.185,4.479c27.899,15.474,175.421,88.171,295.234,146.859l5.772-124.579
			C769.019,637.479,651.045,596.417,604.368,580.649L604.368,580.649z M489.857,620.841
			c-110.188,143.164-242.312,98.394-264.342,89.445c-52.838-13.433-70.549-111.838-4.433-143.164
			c110.177-35.821,207.088,4.468,277.623,40.275C494.277,616.361,489.857,620.841,489.857,620.841L489.857,620.841z
			 M489.857,620.841"/>
	</g>
</g>
</svg>
