<?xml version="1.0" encoding="utf-8"?>
<!-- Generator: Adobe Illustrator 16.0.0, SVG Export Plug-In . SVG Version: 6.00 Build 0)  -->
<!DOCTYPE svg PUBLIC "-//W3C//DTD SVG 1.1//EN" "http://www.w3.org/Graphics/SVG/1.1/DTD/svg11.dtd">
<svg version="1.1" id="Layer_1" xmlns="http://www.w3.org/2000/svg" xmlns:xlink="http://www.w3.org/1999/xlink" x="0px" y="0px"
	 width="1024px" height="1024px" viewBox="0 0 1024 1024" enable-background="new 0 0 1024 1024" xml:space="preserve">
<g>
	<g>
		<defs>
			<rect id="SVGID_1_" x="256.975" y="286" width="510.049" height="458.92"/>
		</defs>
		<clipPath id="SVGID_2_">
			<use xlink:href="#SVGID_1_"  overflow="visible"/>
		</clipPath>
		<path clip-path="url(#SVGID_2_)" d="M407.642,286.442c12.455-1.509,25.378,0.91,36.352,7.026
			c12.933,7.317,25.703,14.979,39.198,21.228c9.228,4.197,19.103,7.716,29.37,7.587c10.768-0.077,21.005-4.056,30.616-8.579
			c12.406-5.937,24.254-12.95,36.205-19.74c9.74-5.506,21.062-8.25,32.243-7.618c13.836,0.538,27.387,6.076,37.669,15.338
			c8.805,7.835,15.257,18.299,18.237,29.702c3.669,13.826,2.242,28.958-4.033,41.822c-5.253,10.927-13.887,20.176-24.395,26.211
			c-15.236,8.859-34.427,10.592-50.949,4.435c-6.536-2.307-12.327-6.18-18.331-9.557c-10.696-6.089-21.397-12.259-32.717-17.137
			c-9.035-3.881-18.828-6.695-28.757-5.917c-11.272,0.821-21.783,5.479-31.78,10.432c-10.919,5.494-21.457,11.695-32.072,17.737
			c-11.617,6.56-25.433,9.13-38.629,7.086c-13.795-1.995-26.772-9.004-36.062-19.383c-9.255-10.206-14.841-23.654-15.47-37.412
			c-0.798-14.191,3.623-28.609,12.304-39.867C376.411,296.933,391.55,288.259,407.642,286.442L407.642,286.442z M307.15,454.812
			c13.619-2.372,28.043-0.037,40.084,6.817c10.568,6.035,21.244,11.901,32.391,16.806c13.122,5.784,27.066,10.325,41.514,10.822
			c20.568,0.757,40.163-6.77,59.07-13.938c8.389-3.007,16.41-7.351,25.328-8.606c7.911-1.19,16.051,0.098,23.452,3.042
			c14.924,6.021,29.861,12.234,45.538,16.044c12.354,2.995,25.272,4.056,37.879,2.081c19.021-2.896,36.729-11.045,53.567-20.043
			c6.221-3.234,12.079-7.24,18.717-9.625c11.786-4.39,24.943-4.827,37.053-1.522c13.024,3.532,24.742,11.617,32.729,22.49
			c7.432,10.003,11.617,22.354,11.827,34.819c0.575,20.931-10.718,41.609-28.566,52.535c-15.449,9.754-35.444,11.889-52.59,5.549
			c-7.324-2.577-13.754-7.009-20.599-10.57c-20.611-11.028-42.546-20.66-65.956-23.482c-16.975-2.103-34.335,0.55-50.242,6.683
			c-11.555,4.495-23.057,9.6-33,17.124c-18.822,14.147-33.87,32.716-46.548,52.418c-6.286,10.04-12.183,20.412-16.414,31.504
			c-0.86,2.652-2.071,5.312-2.044,8.16c0.497,2.771,3.836,3.2,6.143,3.383c42.472,0.284,84.318-10.074,123.745-25.284
			c5.952-2.32,11.915-4.729,18.229-5.893c14.106-2.889,29.134-0.72,41.894,5.916c20.121,10.453,34.573,30.297,40.033,52.134
			c2.584,11.1,1.494,23.119-3.653,33.345c-4.332,8.82-11.557,16.171-20.283,20.66c-10.214,5.446-22.248,6.915-33.618,5.28
			c-11.978-1.79-22.812-8.376-31.101-17.037c-10.254-10.529-16.966-24.174-19.961-38.5c-0.654-2.411-0.713-5.121-2.175-7.212
			c-1.571-1.241-3.547,0.227-5.084,0.825c-23.295,11.645-46.26,23.985-70.126,34.452c-14.473,6.424-29.221,12.242-44.229,17.279
			c-11.143,3.532-22.282,7.287-33.838,9.194c-12.587,2.264-25.848,0.062-37.205-5.757c-11.237-5.745-20.581-15.091-26.325-26.322
			c-6.055-11.763-8.133-25.571-5.673-38.582c2.209-12.25,8.424-23.674,17.29-32.375c18.034-17.354,37.225-33.45,55.74-50.278
			c9.019-8.299,18.048-16.696,25.578-26.41c3.015-3.935,6.374-7.689,8.627-12.146c0.933-1.725,1.038-4.198-0.766-5.417
			c-6.592-5.162-15.246-6.749-23.443-6.865c-12.99-0.055-25.754,3.223-37.933,7.509c-12.99,4.666-25.459,10.677-37.543,17.314
			c-5.121,2.784-10.074,5.975-15.561,8.01c-11.769,4.556-24.976,5.19-37.153,1.938c-13.019-3.416-24.77-11.383-32.829-22.147
			c-7.418-9.804-11.714-21.935-12.096-34.225c-0.559-13.69,3.714-27.534,11.972-38.48
			C278.102,465.931,292.045,457.332,307.15,454.812L307.15,454.812z M307.15,454.812"/>
	</g>
</g>
</svg>
