<?xml version="1.0" encoding="utf-8"?>
<!-- Generator: Adobe Illustrator 16.0.0, SVG Export Plug-In . SVG Version: 6.00 Build 0)  -->
<!DOCTYPE svg PUBLIC "-//W3C//DTD SVG 1.1//EN" "http://www.w3.org/Graphics/SVG/1.1/DTD/svg11.dtd">
<svg version="1.1" id="Layer_1" xmlns="http://www.w3.org/2000/svg" xmlns:xlink="http://www.w3.org/1999/xlink" x="0px" y="0px"
	 width="1024px" height="1024px" viewBox="0 0 1024 1024" enable-background="new 0 0 1024 1024" xml:space="preserve">
<g>
	<g>
		<defs>
			<rect id="SVGID_1_" x="178.76" y="197.021" width="666.24" height="629.958"/>
		</defs>
		<clipPath id="SVGID_2_">
			<use xlink:href="#SVGID_1_"  overflow="visible"/>
		</clipPath>
		<path clip-path="url(#SVGID_2_)" fill="#000000" d="M569.484,463.258c-25.116-1.157-48.636,0.379-71.312,7.686
			c-11.223,3.618-22.739,7.914-32.317,14.482c-30.024,20.591-36.026,50.615-30.678,83.84c7.348,45.521,51.227,56.469,84.641,38.951
			c20.001-10.485,32.317-27.539,40.235-47.795C572.286,529.179,568.707,496.438,569.484,463.258 M586.225,643.947
			c-11.959,9.771-24.908,21.181-38.72,31.476c-21.477,16.001-46.048,25.268-72.848,28.636c-28.53,3.58-57.039,4.381-84.937-4.001
			c-45.836-13.812-74.849-43.794-85.692-89.271c-12.127-50.887-6.041-99.125,27.581-141.591
			c22.633-28.551,53.627-45.165,88.305-55.713c31.646-9.62,64.364-13.537,97.166-16.948c15.496-1.6,31.034-2.968,46.491-4.841
			c2.082-0.253,5.576-2.841,5.556-4.297c-0.271-16.737,0.358-33.686-2.103-50.193c-3.58-24.213-19.308-39.016-43.816-43.478
			c-25.667-4.652-50.153-1.073-69.668,17.222c-7.37,6.949-11.941,16.864-17.266,25.729c-2.063,3.41-2.611,7.665-4.021,11.476
			c-3.686,9.896-9.455,13.98-20.088,13.053c-23.032-2.019-46.023-4.483-69.016-6.821c-5.686-0.587-11.476-0.84-16.926-2.25
			c-9.645-2.549-13.562-9.75-11.583-19.223c14.064-67.102,57.816-106.895,123.213-124.855c56.298-15.455,113-15.496,168.646,3.917
			c39.792,13.896,70.302,38.024,83.691,78.913c6.802,20.718,8.759,42.254,8.802,63.92c0.105,58.007,0.337,116.013-0.085,173.995
			c-0.211,28.298,7.581,53.565,25.394,75.904c3.998,4.989,7.81,10.189,10.925,15.727c4.93,8.779,3.622,14.465-3.956,20.865
			c-21.434,18.15-42.89,36.276-64.388,54.321c-12.169,10.232-21.578,10.611-32.718-0.592
			C617.743,678.541,602.286,661.149,586.225,643.947"/>
		<path clip-path="url(#SVGID_2_)" fill="#000000" d="M525.04,826.239c-136.456-1.221-246.972-40.469-341.698-121.214
			c-1.368-1.157-3.2-2.378-3.642-3.893c-0.714-2.485-1.537-6.044-0.314-7.665c1.115-1.473,5.179-1.768,7.493-1.072
			c3.938,1.178,7.581,3.411,11.244,5.411c60.827,33.098,125.675,55.184,193.766,68.322c53.409,10.386,107.892,14.186,162.226,11.305
			c73.119-3.85,145.124-19.596,213.178-46.613c2.191-0.865,4.357-1.791,6.591-2.549c7.664-2.609,14.106-1.052,16.423,4.254
			c2.926,6.717-1.221,10.906-6.36,14.044c-15.369,9.367-30.401,19.454-46.487,27.476c-45.743,22.78-94.853,38.057-145.446,45.246
			c-25.918,3.747-52.131,5.474-66.951,6.948"/>
	</g>
	<path fill="#000000" d="M779.23,697.765c-14.946,1.325-29.855,2.841-44.803,3.85c-3.094,0.212-6.275-1.451-9.412-2.25
		c2.127-2.887,3.727-6.59,6.483-8.569c13.878-9.897,29.877-14.105,46.279-16.424c18.442-2.63,36.888-2.735,55.035,2.654
		c9.897,2.947,12.005,5.265,11.646,15.749c-1.118,36.467-13.727,68.112-38.74,94.156c-2.612,2.714-7.117,3.496-10.738,5.18
		c0.253-4.045-0.211-8.298,0.863-12.085c5.642-19.666,12.715-38.952,17.223-58.872c3.601-15.896-1.368-21.055-17.265-22.38
		c-5.474-0.464-11.012-0.084-16.528-0.084L779.23,697.765"/>
</g>
</svg>
