<?xml version="1.0" encoding="utf-8"?>
<!-- Generator: Adobe Illustrator 16.0.0, SVG Export Plug-In . SVG Version: 6.00 Build 0)  -->
<!DOCTYPE svg PUBLIC "-//W3C//DTD SVG 1.1//EN" "http://www.w3.org/Graphics/SVG/1.1/DTD/svg11.dtd">
<svg version="1.1" id="Layer_1" xmlns="http://www.w3.org/2000/svg" xmlns:xlink="http://www.w3.org/1999/xlink" x="0px" y="0px"
	 width="1024px" height="1024px" viewBox="0 0 1024 1024" enable-background="new 0 0 1024 1024" xml:space="preserve">
<g>
	<g>
		<defs>
			<rect id="SVGID_1_" x="222" y="180.13" width="556" height="652.79"/>
		</defs>
		<clipPath id="SVGID_2_">
			<use xlink:href="#SVGID_1_"  overflow="visible"/>
		</clipPath>
		<path clip-path="url(#SVGID_2_)" d="M598.709,280.021c33.952-46.296,27.781-95.68,24.694-98.767
			c-3.088-3.087-55.559,3.087-92.597,52.47c-30.864,46.296-30.864,95.681-27.777,98.768
			C506.116,335.58,561.674,335.58,598.709,280.021L598.709,280.021z M682.045,520.766c-3.088-67.899,58.645-108.025,70.989-117.286
			v-3.084c0,0-55.558-67.903-135.806-61.732c-49.384,3.087-77.16,30.868-111.112,30.868c-43.209,0-80.248-30.868-126.544-30.868
			c-37.039,0-148.151,33.952-157.413,175.932c-6.174,141.976,95.68,274.695,132.718,302.472
			c37.039,24.694,64.816,15.437,104.942-3.083c21.604-12.348,89.506-15.432,126.544,9.259
			c46.297,15.432,114.199,3.087,191.36-163.584C771.554,656.57,685.132,634.965,682.045,520.766L682.045,520.766z M682.045,520.766"
			/>
	</g>
</g>
</svg>
