<?xml version="1.0" encoding="utf-8"?>
<!-- Generator: Adobe Illustrator 16.0.0, SVG Export Plug-In . SVG Version: 6.00 Build 0)  -->
<!DOCTYPE svg PUBLIC "-//W3C//DTD SVG 1.1//EN" "http://www.w3.org/Graphics/SVG/1.1/DTD/svg11.dtd">
<svg version="1.1" id="Layer_1" xmlns="http://www.w3.org/2000/svg" xmlns:xlink="http://www.w3.org/1999/xlink" x="0px" y="0px"
	 width="1024px" height="1024px" viewBox="0 0 1024 1024" enable-background="new 0 0 1024 1024" xml:space="preserve">
<g>
	<g>
		<defs>
			<rect id="SVGID_1_" x="263.8" y="231.126" width="509.2" height="560.747"/>
		</defs>
		<clipPath id="SVGID_2_">
			<use xlink:href="#SVGID_1_"  overflow="visible"/>
		</clipPath>
		<path clip-path="url(#SVGID_2_)" d="M340.828,526.243c60.278-13.108,51.978-85.936,50.248-101.818
			c-2.954-24.513-31.566-67.38-70.308-63.945c-48.721,4.328-55.847,75.604-55.847,75.604c-6.619,32.862,15.754,103.22,75.907,90.134
			 M452.729,403.984c33.268,0,60.15-38.692,60.15-86.548c0-47.574-26.781-86.292-60.075-86.292
			c-33.22,0-60.251,38.514-60.251,86.344c0,47.804,27.007,86.545,60.275,86.545 M596.193,409.737
			c44.597,6.056,73.055-42.001,78.808-78.402c5.776-36.146-23.089-78.351-54.498-85.578c-31.642-7.383-70.689,43.705-74.61,76.975
			c-4.148,40.804,5.779,81.404,50.146,87.157 M772.52,471.058c0-17.412-14.178-69.824-67.202-69.824
			c-53.021,0-60.327,49.458-60.327,84.459c0,33.347,2.747,79.778,68.982,78.377c65.93-1.654,58.725-75.601,58.725-93.089
			 M705.521,623.51c0,0-68.933-53.864-109.15-111.954c-54.525-85.783-132.01-50.861-157.873-7.382
			c-25.863,43.936-66.057,71.427-71.707,78.785c-5.779,7.227-83.163,49.458-65.929,126.435
			c17.31,76.976,77.637,75.577,77.637,75.577s44.316,4.428,96.068-7.231c51.748-11.684,96.092,2.8,96.092,2.8
			s120.275,40.804,153.546-37.57c32.886-78.606-18.711-119.206-18.711-119.206"/>
	</g>
</g>
</svg>
