<?xml version="1.0" standalone="no"?><!DOCTYPE svg PUBLIC "-//W3C//DTD SVG 1.1//EN" "http://www.w3.org/Graphics/SVG/1.1/DTD/svg11.dtd">

<svg t="1691237153052" class="icon" version="1.1" xmlns="http://www.w3.org/2000/svg" p-id="3358" xmlns:xlink="http://www.w3.org/1999/xlink" x="0px" y="0px"
	 width="1024px" height="1024px" viewBox="0 0 1024 1024" enable-background="new 0 0 1024 1024" xml:space="preserve">
  <path d="M311.584 695.201c18.617 0 28.331-6.143 28.331-18.986 0-12.558-10.017-19.527-29.45-19.527-7.204 0-15.814 0.558-25.259 1.952v-42.397c7.761 0.863 14.999 1.118 22.22 1.118 19.989 0 29.973-5.861 29.973-19.219 0-13.101-9.133-19.219-28.012-19.219-12.238 0-27.75 3.362-46.885 9.221v-44.222c16.982-5.88 37.483-8.653 61.624-8.653 52.485 0 82.734 22.6 82.734 58.056 0 21.77-14.132 37.664-38.868 42.983 27.489 5.6 41.629 20.938 41.629 44.385 0 36.798-30.771 58.259-89.637 58.259-19.729 0-39.121-2.76-59.118-7.49v-45.518c19.729 5.867 36.369 9.226 50.852 9.226l-0.134 0.031z m219.033-87.355c41.367 0 68.848 25.393 68.848 62.789 0 40.197-31.377 68.1-80.783 68.1-58.294 0-95.789-36.555-95.789-96.557 0-68.339 39.735-106.865 111.351-106.865 15.345 0 31.722 1.726 48.605 5.343v44.386c-15.512-4.738-30.501-6.98-46.366-6.98-31.631 0-46.366 12.843-47.142 41.889 11.716-8.88 24.476-11.98 41.368-11.98l-0.092-0.125z m5.824 61.418c0-16.204-9.157-26.547-22.473-26.547-13.331 0-22.22 10.049-22.22 26.547 0 16.167 8.889 26.215 22.22 26.215 13.602 0 22.473-10.048 22.473-26.215z m83.576-128.961h135.188v46.334h-71.96v29.303c5.774-0.283 9.736-0.56 11.025-0.56 44.651 0 68.864 22.666 68.864 60.852 0 39.382-29.474 62.822-86.876 62.822-19.988 0-39.727-3.016-59.724-8.013v-44.129c15.252 4.225 28.615 6.203 39.995 6.203 23.264 0 35.501-7.844 35.501-22.32 0-16.127-12.75-24.233-38.867-24.233-11.12 0-21.95 1.961-33.33 4.739V540.303h0.184z" p-id="3359"></path><path d="M260.866 283.947h68.52v82.246c9.738-13.374 23.095-19.631 41.196-19.631 39.836 0 62.4 27.88 62.4 77.412 0 47.259-22.842 75.438-60.721 75.438-23.113 0-38.712-8.536-47.618-26.747v24.744h-63.777V283.947z m66.554 138.587c0 21.656 4.738 32.187 16.993 32.187 11.981 0 17.262-10.521 17.262-32.178 0-21.546-5.011-32.146-17.262-32.146-12.255 0-16.993 10.6-16.993 32.146v-0.009z m280.706 13.702h-94.944c1.665 15.975 13.93 23.533 37.038 23.533 16.146 0 32.863-3.081 48.993-9.241v37.235c-15.856 6.43-37.575 10.084-62.913 10.084-58.488 0-89.953-27.995-89.953-77.265 0-48.164 30.939-76.995 82.478-76.995 57.145 0 79.377 26.587 79.377 83.156v9.502l-0.076-0.009z m-59.589-28.262v-4.487c0-16.521-6.119-26.028-17.822-26.028-11.98 0-18.1 9.507-18.1 26.307v4.192h35.922v0.016z m194.97-60.474v42.832h-31.95v34.997c0 17.926 2.82 26.327 16.532 26.327 3.707 0 8.707-0.606 14.563-1.986v41.981c-14.822 4.478-29.647 6.11-45.331 6.11-19.308 0-34.129-6.202-42.837-16.8-11.203-14.055-11.463-31.628-11.463-55.161v-35.51h-24.483v-42.824h24.391v-32.441l68.628-21.563V347.5h31.95z" p-id="3360"></path></svg>
