<?xml version="1.0" encoding="utf-8"?>
<!-- Generator: Adobe Illustrator 16.0.0, SVG Export Plug-In . SVG Version: 6.00 Build 0)  -->
<!DOCTYPE svg PUBLIC "-//W3C//DTD SVG 1.1//EN" "http://www.w3.org/Graphics/SVG/1.1/DTD/svg11.dtd">
<svg version="1.1" id="Layer_1" xmlns="http://www.w3.org/2000/svg" xmlns:xlink="http://www.w3.org/1999/xlink" x="0px" y="0px"
	 width="1024px" height="1024px" viewBox="0 0 1024 1024" enable-background="new 0 0 1024 1024" xml:space="preserve">
<g>
	<g>
		<defs>
			<rect id="SVGID_1_" x="252.42" y="232.743" width="486.96" height="569.313"/>
		</defs>
		<clipPath id="SVGID_2_">
			<use xlink:href="#SVGID_1_"  overflow="visible"/>
		</clipPath>
		<path clip-path="url(#SVGID_2_)" d="M592.745,290.918c18.571,0,33.673,15.873,33.673,35.391S611.316,361.7,592.745,361.7
			c-18.578,0-33.688-15.874-33.688-35.392S574.167,290.918,592.745,290.918 M739.03,620.757c0,0-1.694-35.083-35.408-35.083
			c-19.672,0-35.742,16.757-35.742,37.43c0,1.344,0.094,5.026,0.094,7.259c0,61.399-47.371,111.176-105.798,111.176
			c-52.973,0-94.693-36.482-104.813-89.645c0.328,1.678-8.897-28.906,3.572-77.525c1.539-5.977,3.341-7.854,1.996-10.191
			c-0.655-1.152-3.559,2.271-3.559,2.271c-25.611,43.705-15.289,97.316-15.744,94.381c9.267,58.514,47.999,105.218,106.781,121.867
			c2.669,0.758,5.324,1.369,7.984,1.911c-2.988,0.155-5.992,0.255-9.051,0.255c-86.886,0-156.118-70.221-156.118-161.506
			c0-59.344,35.091-118.007,78.966-141.54c2.377-1.308,8.547-2.938,10.169-2.563c7.598,1.767,11.766,3.244,12.86,13.289
			c1.542,14.104-4.484,22.488-14.259,34.008c-3.744,4.421-6.683,8.042-6.69,8.06c-1.505,4.338,5.896,4.32,5.896,4.32
			s17.56,1.528,34.772-7.689c15.396-8.253,28.47-20.405,40.179-36.497c14.106-19.392,15.71-46.938,14.851-61.264
			c0-3.38,2.164-6.229,7.541-8.695c14.68-6.74,26.06-10.892,31.842-12.861c16.252-5.523,34.841-10.267,47.174-15.843
			c-5.79-1.075-11.675-2.488-16.123-4.282c-18.32-7.384-21.931-16.724-21.931-16.724l2.88,0.172c0,0,17.079,9.54,37.141,9.792
			c26.162,0.333,37.159-5.901,39.893-7.409c19.135-10.073,30.34-26.813,20.311-46.555c-5.828-11.463-23.336-14.44-31.169-14.621
			c-17.852-0.425-18.656,1.488-18.304-10.048c-0.024,0.928-0.689-47.499-53.079-65.97c1.667,0.478-65.194-32.559-164.591,35.645
			c-18.551,12.729-40.682,30.875-60.452,52.242c-16.432-3.802-40.445-11.997-78.63-0.313c-44.88,13.732-57.163,47.224-57.163,47.224
			s-5.582,17.035-1.219,18.667c8.77,3.283,32.005-16.543,52.315-8.87c21.805,8.231,14.074,28.945,13.257,30.676
			c-18.356,35.49-30.345,79.369-31.145,123.996c-2.405,134.199,99.719,258.651,246.791,261.597
			c31.619,0.632,64.105-5.301,91.91-16.656c5.809-2.374,11.083-4.817,15.906-7.327c56.236-22.267,96.248-79.301,96.248-146.187
			C739.369,627.646,739.244,624.188,739.03,620.757 M594.884,315.523c0,3.277,2.527,5.931,5.637,5.931
			c3.114,0,5.644-2.654,5.644-5.931c0-3.269-2.529-5.921-5.644-5.921C597.411,309.602,594.884,312.254,594.884,315.523
			 M592.745,352.924c7.424,0,14.088-3.374,18.715-8.734c-2.455,0.978-5.229,1.555-7.989,1.555c-11.792,0-21.346-9.77-21.346-21.819
			c0-11.986,9.45-21.691,21.151-21.805c-3.222-1.547-6.776-2.433-10.531-2.433c-14.002,0-25.341,11.919-25.341,26.621
			C567.404,341.011,578.743,352.924,592.745,352.924"/>
	</g>
	<path d="M551.753,714.605c-8.704,1.774-26.774,1.842-35.433,1.152c22.752,14.008,51.959,12.896,78.602,3.969
		c36.45-12.217,58.841-55.537,59.342-78.989c0.369-17.323-0.723-36.011,10.363-50.29c8.62-11.094,19.5-16.997,31.486-20.239
		c0,0-0.777-3.049-1.033-4.087c0,0-7.791-34.17-40.922-27.666c-19.352,3.785-32.226,23.35-28.612,43.676
		c0.232,1.326,0.972,4.921,1.357,7.114C637.611,649.607,607.233,703.258,551.753,714.605"/>
</g>
</svg>
