<?xml version="1.0" encoding="utf-8"?>
<!-- Generator: Adobe Illustrator 16.0.0, SVG Export Plug-In . SVG Version: 6.00 Build 0)  -->
<!DOCTYPE svg PUBLIC "-//W3C//DTD SVG 1.1//EN" "http://www.w3.org/Graphics/SVG/1.1/DTD/svg11.dtd">
<svg version="1.1" id="Layer_1" xmlns="http://www.w3.org/2000/svg" xmlns:xlink="http://www.w3.org/1999/xlink" x="0px" y="0px"
	 width="1024px" height="1024px" viewBox="0 0 1024 1024" enable-background="new 0 0 1024 1024" xml:space="preserve">
<g>
	<g>
		<defs>
			<rect id="SVGID_1_" x="240" y="309" width="543.898" height="415"/>
		</defs>
		<clipPath id="SVGID_00000102544763913139829980000008775864221852712064_">
			<use xlink:href="#SVGID_1_"  overflow="visible"/>
		</clipPath>
		<path clip-path="url(#SVGID_00000102544763913139829980000008775864221852712064_)" d="M701.07,344.046
			c-0.151-0.294-0.402-0.522-0.706-0.648c-35.263-16.179-72.478-27.716-110.708-34.322c-0.714-0.134-1.43,0.205-1.779,0.84
			c-5.068,9.198-9.668,18.644-13.782,28.306c-41.212-6.256-83.132-6.256-124.344,0c-4.142-9.686-8.816-19.135-13.999-28.306
			c-0.364-0.619-1.071-0.953-1.779-0.84c-38.235,6.592-75.452,18.129-110.711,34.324c-0.303,0.126-0.558,0.345-0.73,0.623
			c-70.511,105.302-89.828,208.011-80.352,309.449c0.054,0.504,0.309,0.962,0.709,1.274c41.058,30.399,86.98,53.605,135.812,68.623
			c0.705,0.212,1.466-0.036,1.908-0.623c10.488-14.27,19.78-29.383,27.784-45.18c0.223-0.438,0.248-0.95,0.068-1.409
			c-0.181-0.456-0.549-0.816-1.009-0.984c-14.654-5.608-28.841-12.367-42.429-20.214c-0.501-0.296-0.822-0.82-0.856-1.4
			c-0.034-0.58,0.223-1.141,0.686-1.493c2.859-2.134,5.668-4.336,8.426-6.601c0.493-0.406,1.175-0.497,1.757-0.237
			c89.011,40.624,185.379,40.624,273.337,0c0.585-0.278,1.278-0.194,1.779,0.217c2.76,2.276,5.576,4.484,8.446,6.621
			c0.465,0.35,0.727,0.905,0.698,1.486c-0.032,0.58-0.348,1.109-0.847,1.407c-13.556,7.913-27.757,14.668-42.449,20.191
			c-0.461,0.176-0.827,0.54-1.002,1.003c-0.176,0.461-0.147,0.975,0.079,1.414c8.137,15.709,17.416,30.801,27.761,45.155
			c0.431,0.603,1.199,0.863,1.908,0.646c48.919-14.968,94.923-38.174,136.033-68.621c0.404-0.295,0.664-0.752,0.706-1.251
			C792.829,536.223,762.491,434.353,701.07,344.046L701.07,344.046z M421.685,591.709c-26.799,0-48.881-24.593-48.881-54.795
			c0-30.205,21.652-54.8,48.881-54.8c27.438,0,49.308,24.81,48.879,54.797C470.564,567.116,448.909,591.709,421.685,591.709
			L421.685,591.709z M602.409,591.709c-26.797,0-48.879-24.593-48.879-54.795c0-30.205,21.652-54.8,48.879-54.8
			c27.443,0,49.31,24.81,48.881,54.797C651.29,567.116,629.852,591.709,602.409,591.709L602.409,591.709z M602.409,591.709"/>
	</g>
</g>
</svg>
