<?xml version="1.0" encoding="utf-8"?>
<!-- Generator: Adobe Illustrator 16.0.0, SVG Export Plug-In . SVG Version: 6.00 Build 0)  -->
<!DOCTYPE svg PUBLIC "-//W3C//DTD SVG 1.1//EN" "http://www.w3.org/Graphics/SVG/1.1/DTD/svg11.dtd">
<svg version="1.1" id="Layer_1" xmlns="http://www.w3.org/2000/svg" xmlns:xlink="http://www.w3.org/1999/xlink" x="0px" y="0px"
	 width="1024px" height="1024px" viewBox="0 0 1024 1024" enable-background="new 0 0 1024 1024" xml:space="preserve">
<g>
	<rect x="284.748" y="287.193" width="451.478" height="50.85"/>
	<path d="M696.973,589.909V391.096H324.002v198.813H696.973z M378.086,441.921h265.345v97.194H378.086V441.921z M378.086,441.921"/>
	<path d="M616.299,704.504c16.238-24.841,31.549-53.657,45.745-86.359l-54.262-19.776c-14.123,38.751-30.542,74.188-49.245,106.136
		h-94.421c-15.646-41.407-33.3-76.812-53.127-106.136l-49.906,19.776c20.577,30.874,37.177,59.62,49.906,86.359H271.982v50.303
		h477.035v-50.303H616.299z M616.299,704.504"/>
</g>
</svg>
