<?xml version="1.0" encoding="utf-8"?>
<!-- Generator: Adobe Illustrator 16.0.0, SVG Export Plug-In . SVG Version: 6.00 Build 0)  -->
<!DOCTYPE svg PUBLIC "-//W3C//DTD SVG 1.1//EN" "http://www.w3.org/Graphics/SVG/1.1/DTD/svg11.dtd">
<svg version="1.1" id="Layer_1" xmlns="http://www.w3.org/2000/svg" xmlns:xlink="http://www.w3.org/1999/xlink" x="0px" y="0px"
	 width="1024px" height="1024px" viewBox="0 0 1024 1024" enable-background="new 0 0 1024 1024" xml:space="preserve">
<g>
	<path d="M626.843,679.109c-10.976-50.176-24.042-96.434-37.108-137.199c13.066-1.831,26.133-2.875,41.29-2.875h0.523
		c24.302,0,50.959,3.135,79.966,9.669C701.584,602.801,670.225,649.056,626.843,679.109 M511.332,715.175
		c-45.471,0-87.284-14.896-121.258-40.246c7.318-11.759,22.738-34.495,47.564-58.018c25.086-24.303,60.628-49.392,105.839-64.286
		c15.42,43.641,29.53,93.296,40.245,149.22C561.248,710.47,537.465,715.175,511.332,715.175 M307.494,511.332v-2.873
		c5.748,0.262,13.327,0.262,22.211,0.262h0.264c40.767-0.262,112.374-3.66,185.023-26.396c3.918,8.625,7.839,17.511,11.76,26.917
		c-48.608,16.204-86.764,42.077-114.987,67.426c-26.917,25.087-45.47,49.392-56.187,65.332
		C325.788,606.981,307.494,561.249,307.494,511.332 M421.174,328.399c14.374,16.987,42.596,53.835,72.911,111.066
		c-61.151,18.558-123.61,22.738-160.982,22.738h-3.398c-6.271,0-11.759,0-16.2-0.262
		C328.399,403.403,367.601,354.535,421.174,328.399 M511.332,307.494c48.086,0,92.252,16.725,127.011,44.687
		c-26.656,32.146-61.675,54.62-100.091,71.608c-26.92-51.746-53.053-88.854-70.3-111.59
		C482.064,309.324,496.438,307.494,511.332,307.494 M671.53,385.373c25.35,32.404,41.29,72.651,43.38,116.291
		c-29.53-6.271-57.229-9.146-83.362-9.146h-0.263c-20.905,0-40.507,1.831-59.061,4.966c-4.442-10.977-8.623-21.43-13.592-31.622
		C599.926,447.831,639.386,421.958,671.53,385.373 M511.332,250C367.078,250,250,367.078,250,511.332
		c0,144.258,117.078,261.336,261.332,261.336c144.258,0,261.336-117.078,261.336-261.336C772.668,367.078,655.59,250,511.332,250
		L511.332,250z M511.332,250"/>
</g>
</svg>
