<?xml version="1.0" encoding="utf-8"?>
<!-- Generator: Adobe Illustrator 16.0.0, SVG Export Plug-In . SVG Version: 6.00 Build 0)  -->
<!DOCTYPE svg PUBLIC "-//W3C//DTD SVG 1.1//EN" "http://www.w3.org/Graphics/SVG/1.1/DTD/svg11.dtd">
<svg version="1.1" id="Layer_1" xmlns="http://www.w3.org/2000/svg" xmlns:xlink="http://www.w3.org/1999/xlink" x="0px" y="0px"
	 width="1024px" height="1024px" viewBox="0 0 1024 1024" enable-background="new 0 0 1024 1024" xml:space="preserve">
<g>
	<path d="M257.583,450.632h7.829v265.011h-7.829V450.632z M385.664,450.632h8.241v265.011h-8.241V450.632z M513.57,450.632h8.238
		v265.011h-8.238V450.632z M761.434,450.632h8.241v265.011h-8.241V450.632z M641.203,450.632h8.241v265.011h-8.241V450.632z
		 M641.203,450.632"/>
	<path d="M257.583,715.704h512.092v64.081H257.583V715.704z M688.189,417.012c-2.105-34.611-20.635-66.578-52.608-90.708
		C602.885,301.646,559.578,288,513.626,288c-45.951,0-89.264,13.646-122.022,38.304c-31.971,24.13-50.431,56.097-52.603,90.708
		h-81.418v33.62h512.024v-33.62H688.189z M363.859,417.012c2.171-25.845,16.937-50.167,42.057-69.15
		c28.609-21.625,66.845-33.489,107.716-33.489c40.87,0,79.104,11.863,107.712,33.489c25.121,18.984,39.889,43.306,42.061,69.15
		H363.859z M363.859,417.012"/>
</g>
</svg>
