<?xml version="1.0" encoding="utf-8"?>
<!-- Generator: Adobe Illustrator 16.0.0, SVG Export Plug-In . SVG Version: 6.00 Build 0)  -->
<!DOCTYPE svg PUBLIC "-//W3C//DTD SVG 1.1//EN" "http://www.w3.org/Graphics/SVG/1.1/DTD/svg11.dtd">
<svg version="1.1" id="Layer_1" xmlns="http://www.w3.org/2000/svg" xmlns:xlink="http://www.w3.org/1999/xlink" x="0px" y="0px"
	 width="1024px" height="1024px" viewBox="0 0 1024 1024" enable-background="new 0 0 1024 1024" xml:space="preserve">
<path fill-rule="evenodd" clip-rule="evenodd" d="M332.94,175.229C370.032,92.557,383.688,9.882,383.688,9.882l107.356,56.855
	l-31.229,80.083c0,0,7.808,10.334,35.132,5.186c27.341-5.186,206.906-124.049,329.877-95.602
	c124.646,28.785,201.057,157.607,201.057,258.357v483.157c0,0-13.669,147.273-109.314,198.946s-242.038,12.928-242.038,12.928
	l7.808-80.12c0,0,87.839,25.854,142.488,2.592c54.649-23.261,70.265-80.08,70.265-80.08V276.018c0,0-7.806-59.45-58.553-100.788
	c-50.747-41.336-76.128-36.15-130.778-25.817c-54.651,10.336-138.584,62.008-138.584,62.008l-46.844,121.417h316.206v82.675H643.299
	v103.382h201.042v72.34l-197.138,10.335v196.351l93.686-54.265l-7.808-85.266l76.128-20.67l56.608,196.392l-93.685,56.819
	l-11.726-69.747c0,0-177.183,98.795-248.24,106.538c-71.075,7.738-140.886-14.695-174.74-78.279
	c-33.84-63.547-25.95-191.053-25.95-191.053l126.322,4.172c0,0-9.851,72.639,15.018,118.599
	c24.855,45.921,81.182,34.837,81.182,34.837V596.383l-195.194-7.741v-69.748h197.138l-1.944-103.382l-60.514-15.481
	c0,0-50.747,103.342-83.935,100.75c-33.188-2.556-37.09-62.005-37.09-62.005L459.814,263.09l-58.554-7.739l-87.837,136.938
	l-66.361-77.527C247.062,314.762,295.864,257.904,332.94,175.229z M108.477,283.759c0,0,169.813,147.274,181.525,263.544
	c11.71,116.271-141.155,470.231-141.155,470.231L1.12,875.445c0,0,206.906-224.799,195.195-299.731
	C184.604,500.78,42.116,407.771,42.116,407.771L108.477,283.759z M187.968,231.147c-48.164,0-87.214-51.67-87.214-115.442
	S139.804,0.263,187.968,0.263c48.165,0,87.214,51.67,87.214,115.442S236.132,231.147,187.968,231.147z"/>
</svg>
