<?xml version="1.0" encoding="utf-8"?>
<!-- Generator: Adobe Illustrator 16.0.0, SVG Export Plug-In . SVG Version: 6.00 Build 0)  -->
<!DOCTYPE svg PUBLIC "-//W3C//DTD SVG 1.1//EN" "http://www.w3.org/Graphics/SVG/1.1/DTD/svg11.dtd">
<svg version="1.1" id="Layer_1" xmlns="http://www.w3.org/2000/svg" xmlns:xlink="http://www.w3.org/1999/xlink" x="0px" y="0px"
	 width="1024px" height="1024px" viewBox="0 0 1024 1024" enable-background="new 0 0 1024 1024" xml:space="preserve">
<g>
	<path d="M733.64,302.214H291.602c-26.618,0-48.902,22.284-48.902,48.902V513.96C242.7,664.156,362.786,784,512.74,784
		c149.355,0,269.561-119.844,269.561-270.04V351.116C782.301,324.136,760.981,302.214,733.64,302.214L733.64,302.214z
		 M538.518,625.613c-14.936,14.213-37.822,13.369-51.069,0C350.5,494.446,349.056,499.024,349.056,477.223
		c0-20.354,16.62-36.978,36.974-36.978c20.479,0,19.394,4.578,126.71,107.559c109.125-104.667,106.717-107.559,127.071-107.559
		c20.355,0,36.979,16.623,36.979,36.978C676.79,498.663,673.296,496.134,538.518,625.613L538.518,625.613z M538.518,625.613"/>
</g>
</svg>
