<?xml version="1.0" encoding="utf-8"?>
<!-- Generator: Adobe Illustrator 16.0.0, SVG Export Plug-In . SVG Version: 6.00 Build 0)  -->
<!DOCTYPE svg PUBLIC "-//W3C//DTD SVG 1.1//EN" "http://www.w3.org/Graphics/SVG/1.1/DTD/svg11.dtd">
<svg version="1.1" id="Layer_1" xmlns="http://www.w3.org/2000/svg" xmlns:xlink="http://www.w3.org/1999/xlink" x="0px" y="0px"
	 width="1024px" height="1024px" viewBox="0 0 1024 1024" enable-background="new 0 0 1024 1024" xml:space="preserve">
<path id="G" d="M690.194,479.706H496.998v0.004c-9.275,0-16.798,7.518-16.8,16.795l-0.016,42h-0.004
	c-0.002,9.277,7.518,16.799,16.796,16.803c0.002,0,0.004,0,0.004,0l117.618-0.004l0,0c9.277,0,16.8,7.522,16.8,16.8l0,0v4.2v4.2l0,0
	c0,27.832-22.564,50.398-50.399,50.398H421.387l0,0c-9.277,0-16.797-7.522-16.797-16.8l-0.004-159.597h-0.002
	c0-27.834,22.562-50.398,50.397-50.4h0.002l235.164,0.002v-0.011c9.275,0,16.794-7.516,16.8-16.789l0.037-41.999h0.011
	c0.006-9.277-7.512-16.804-16.79-16.81c-0.004,0-0.006,0-0.01,0l-235.195,0.01l0,0c-69.586,0-125.998,56.412-125.998,125.997
	L329,689.701l0,0c0,9.277,7.522,16.8,16.8,16.8l0,0h247.796l0,0c62.628,0,113.398-50.768,113.398-113.397v-96.599l0,0
	C706.994,487.228,699.472,479.706,690.194,479.706z"/>
</svg>
