<?xml version="1.0" encoding="utf-8"?>
<!-- Generator: Adobe Illustrator 16.0.0, SVG Export Plug-In . SVG Version: 6.00 Build 0)  -->
<!DOCTYPE svg PUBLIC "-//W3C//DTD SVG 1.1//EN" "http://www.w3.org/Graphics/SVG/1.1/DTD/svg11.dtd">
<svg version="1.1" id="Layer_1" xmlns="http://www.w3.org/2000/svg" xmlns:xlink="http://www.w3.org/1999/xlink" x="0px" y="0px"
	 width="1024px" height="1024px" viewBox="0 0 1024 1024" enable-background="new 0 0 1024 1024" xml:space="preserve">
<g>
	<g>
		<defs>
			<rect id="SVGID_1_" x="227" y="219.784" width="534" height="597.056"/>
		</defs>
		<clipPath id="SVGID_2_">
			<use xlink:href="#SVGID_1_"  overflow="visible"/>
		</clipPath>
		<path clip-path="url(#SVGID_2_)" d="M722.168,321.931c23.658-43.976-3.412-101.449-3.412-101.449
			c-60.886,0-104.861,40.564-104.861,40.564c-23.654-13.494-101.449-13.494-101.449-13.494s-77.79,0-101.449,13.494
			c0,0-43.976-40.564-104.861-40.564c0,0-27.066,57.473-3.413,101.449c0,0-54.136,50.724-33.814,158.998
			c19.003,101.76,108.197,128.595,165.666,128.595c0,0-23.654,20.317-20.318,54.137c0,0-33.818,20.317-67.633,6.744
			c-33.816-13.493-50.726-47.388-50.726-47.388s-33.814-43.976-67.633-27.066c0,0-10.157,10.161,27.07,27.066
			c0,0,27.069,40.563,37.227,64.299c10.16,23.657,64.297,43.975,118.434,30.481v77.791c0,0,0,6.748-13.494,10.16
			c-13.498,3.412-13.498,10.161-6.749,10.161h243.538c6.749,0,6.749-6.749-6.745-10.161c-13.497-3.412-13.497-10.16-13.497-10.16
			v-77.791c0,0,0.311-40.564,0-54.137c-0.776-33.975-23.654-54.137-23.654-54.137c57.47,0,146.663-26.835,165.743-128.519
			C776.305,372.73,722.168,321.931,722.168,321.931L722.168,321.931z M722.168,321.931"/>
	</g>
</g>
</svg>
