<?xml version="1.0" encoding="utf-8"?>
<!-- Generator: Adobe Illustrator 16.0.0, SVG Export Plug-In . SVG Version: 6.00 Build 0)  -->
<!DOCTYPE svg PUBLIC "-//W3C//DTD SVG 1.1//EN" "http://www.w3.org/Graphics/SVG/1.1/DTD/svg11.dtd">
<svg version="1.1" id="Layer_1" xmlns="http://www.w3.org/2000/svg" xmlns:xlink="http://www.w3.org/1999/xlink" x="0px" y="0px"
	 width="1024px" height="1024px" viewBox="0 0 1024 1024" enable-background="new 0 0 1024 1024" xml:space="preserve">
<g>
	<g>
		<defs>
			<rect id="SVGID_1_" x="240.64" y="307.5" width="543.152" height="408"/>
		</defs>
		<clipPath id="SVGID_00000150071894541547160140000009677019665842583432_">
			<use xlink:href="#SVGID_1_"  overflow="visible"/>
		</clipPath>
		<path clip-path="url(#SVGID_00000150071894541547160140000009677019665842583432_)" d="M783.288,341.74v339.205
			c0,19.22-14.699,33.92-33.92,33.92h-33.92V407.026l-203.522,146.15L308.4,407.026v307.839h-33.92
			c-19.244,0-33.92-14.7-33.92-33.92V341.74c0-9.612,3.664-18.092,9.746-24.153c6.413-6.379,15.129-9.902,24.174-9.77h11.307
			l226.138,163.951l226.136-163.951h11.306c9.612,0,18.092,3.665,24.174,9.77C779.647,323.647,783.288,332.128,783.288,341.74
			L783.288,341.74z M783.288,341.74"/>
	</g>
</g>
</svg>
