<?xml version="1.0" encoding="utf-8"?>
<!-- Generator: Adobe Illustrator 16.0.0, SVG Export Plug-In . SVG Version: 6.00 Build 0)  -->
<!DOCTYPE svg PUBLIC "-//W3C//DTD SVG 1.1//EN" "http://www.w3.org/Graphics/SVG/1.1/DTD/svg11.dtd">
<svg version="1.1" id="Layer_1" xmlns="http://www.w3.org/2000/svg" xmlns:xlink="http://www.w3.org/1999/xlink" x="0px" y="0px"
	 width="1024px" height="1024px" viewBox="0 0 1024 1024" enable-background="new 0 0 1024 1024" xml:space="preserve">
<g>
	<g>
		<g>
			<defs>
				<rect id="SVGID_1_" x="219.301" y="211.5" width="585.238" height="598.92"/>
			</defs>
			<clipPath id="SVGID_2_">
				<use xlink:href="#SVGID_1_"  overflow="visible"/>
			</clipPath>
			<path clip-path="url(#SVGID_2_)" d="M517.915,468.103h281.993c3.109,17.372,4.665,33.967,4.665,49.784
				c0,56.272-11.799,106.512-35.396,150.722c-23.594,44.211-57.238,78.763-100.934,103.656
				c-43.692,24.894-93.801,37.339-150.329,37.339c-40.71,0-79.477-7.843-116.299-23.53c-36.818-15.687-68.585-36.887-95.294-63.597
				c-26.707-26.705-47.905-58.472-63.593-95.294c-15.687-36.816-23.531-75.584-23.531-116.295c0-40.709,7.844-79.477,23.531-116.298
				c15.688-36.818,36.886-68.585,63.593-95.294c26.709-26.708,58.476-47.906,95.294-63.593
				c36.822-15.688,75.588-23.53,116.299-23.53c77.791,0,144.562,26.059,200.312,78.179l-81.291,78.178
				c-31.896-30.856-71.569-46.284-119.021-46.284c-33.451,0-64.371,8.428-92.764,25.282c-28.393,16.854-50.891,39.737-67.486,68.648
				c-16.595,28.915-24.894,60.482-24.894,94.712c0,34.227,8.299,65.798,24.894,94.708c16.595,28.915,39.093,51.799,67.486,68.652
				c28.393,16.854,59.312,25.282,92.764,25.282c22.562,0,43.304-3.11,62.234-9.335c18.928-6.223,34.485-14.002,46.673-23.34
				c12.188-9.332,22.819-19.965,31.893-31.892c9.077-11.93,15.754-23.209,20.031-33.839c4.28-10.632,7.195-20.745,8.751-30.341
				H517.915V468.103z"/>
		</g>
	</g>
</g>
</svg>
