<?xml version="1.0" encoding="utf-8"?>
<!-- Generator: Adobe Illustrator 16.0.0, SVG Export Plug-In . SVG Version: 6.00 Build 0)  -->
<!DOCTYPE svg PUBLIC "-//W3C//DTD SVG 1.1//EN" "http://www.w3.org/Graphics/SVG/1.1/DTD/svg11.dtd">
<svg version="1.1" id="Layer_1" xmlns="http://www.w3.org/2000/svg" xmlns:xlink="http://www.w3.org/1999/xlink" x="0px" y="0px"
	 width="1024px" height="1024px" viewBox="0 0 1024 1024" enable-background="new 0 0 1024 1024" xml:space="preserve">
<g>
	<g>
		<defs>
			<rect id="SVGID_1_" x="282.812" y="284.613" width="459.188" height="459.802"/>
		</defs>
		<clipPath id="SVGID_2_">
			<use xlink:href="#SVGID_1_"  overflow="visible"/>
		</clipPath>
		<path clip-path="url(#SVGID_2_)" d="M512.252,396.864c-65.092,0-117.599,52.506-117.599,117.6
			c0,65.093,52.506,117.599,117.599,117.599c65.096,0,117.599-52.506,117.599-117.599
			C629.851,449.37,577.348,396.864,512.252,396.864L512.252,396.864z M512.252,590.917c-42.064,0-76.454-34.285-76.454-76.453
			c0-42.167,34.288-76.456,76.454-76.456c42.169,0,76.454,34.288,76.454,76.456C588.706,556.632,554.318,590.917,512.252,590.917
			L512.252,590.917z M662.092,392.054c0,15.25-12.284,27.429-27.431,27.429c-15.25,0-27.429-12.281-27.429-27.429
			c0-15.148,12.281-27.429,27.429-27.429C649.808,364.625,662.092,376.906,662.092,392.054L662.092,392.054z M739.979,419.893
			c-1.74-36.744-10.134-69.291-37.05-96.105c-26.816-26.815-59.363-35.209-96.107-37.051c-37.868-2.149-151.374-2.149-189.243,0
			c-36.642,1.739-69.188,10.132-96.104,36.949c-26.919,26.814-35.21,59.36-37.051,96.105c-2.149,37.868-2.149,151.374,0,189.243
			c1.738,36.744,10.132,69.29,37.051,96.106c26.917,26.815,59.36,35.208,96.104,37.05c37.869,2.148,151.375,2.148,189.243,0
			c36.744-1.739,69.291-10.133,96.107-37.05c26.814-26.816,35.207-59.362,37.05-96.106
			C742.127,571.164,742.127,457.761,739.979,419.893L739.979,419.893z M691.056,649.665c-7.983,20.061-23.439,35.516-43.601,43.601
			c-30.193,11.977-101.837,9.214-135.203,9.214c-33.366,0-105.113,2.66-135.202-9.214c-20.06-7.983-35.515-23.438-43.601-43.601
			c-11.974-30.192-9.21-101.837-9.21-135.201c0-33.367-2.661-105.113,9.21-135.204c7.984-20.06,23.438-35.515,43.601-43.601
			c30.193-11.974,101.836-9.21,135.202-9.21c33.366,0,105.113-2.662,135.203,9.21c20.059,7.984,35.514,23.438,43.601,43.601
			c11.976,30.192,9.212,101.836,9.212,135.204C700.268,547.828,703.031,619.574,691.056,649.665L691.056,649.665z M691.056,649.665"
			/>
	</g>
</g>
</svg>
