<?xml version="1.0" encoding="utf-8"?>
<!-- Generator: Adobe Illustrator 16.0.0, SVG Export Plug-In . SVG Version: 6.00 Build 0)  -->
<!DOCTYPE svg PUBLIC "-//W3C//DTD SVG 1.1//EN" "http://www.w3.org/Graphics/SVG/1.1/DTD/svg11.dtd">
<svg version="1.1" id="Layer_1" xmlns="http://www.w3.org/2000/svg" xmlns:xlink="http://www.w3.org/1999/xlink" x="0px" y="0px"
	 width="1024px" height="1024px" viewBox="0 0 1024 1024" enable-background="new 0 0 1024 1024" xml:space="preserve">
<g>
	<g>
		<defs>
			<rect id="SVGID_1_" x="223" y="347.974" width="545" height="420.129"/>
		</defs>
		<clipPath id="SVGID_2_">
			<use xlink:href="#SVGID_1_"  overflow="visible"/>
		</clipPath>
		<path clip-path="url(#SVGID_2_)" d="M318.062,486.057c0.872,11.24,2.113,22.542,2.548,33.843
			c0.807,20.989-7.515,37.692-24.592,49.924c-13.165,9.439-27.571,16.269-43.28,19.994c-18.379,4.284-33.718-10.804-28.938-29.121
			c2.734-10.434,6.211-21.05,11.675-30.241c13.538-22.79,21.795-47.443,28.564-72.777c1.242-4.72,2.918-9.439,5.028-13.847
			c3.665-7.637,12.048-11.611,20.059-9.191c5.775,1.74,11.424,4.225,16.829,7.081c8.567,4.469,16.891,9.562,25.335,14.406
			c5.154-5.527,10.121-11.363,15.462-16.703c18.814-18.691,42.038-30.553,65.696-41.481c37.072-17.138,75.198-31.669,115.312-39.989
			c18.566-3.851,37.569-6.334,56.509-7.762c22.603-1.676,45.329-2.545,67.933-1.988c29.372,0.685,58.308,4.597,85.132,18.071
			c14.47,7.267,26.579,17.324,29.186,33.844c1.801,11.55,1.119,23.781-0.187,35.517c-2.172,19.933-10.308,38.313-18.255,56.444
			c-2.112,4.784-7.637,8.632-12.42,11.428c-12.11,7.077-25.645,10.741-39.369,13.351c-38.686,7.39-76.625,4.099-113.634-9.191
			c-21.983-7.885-39.681-22.23-55.825-38.686c-1.675-1.676-3.042-3.973-5.092-4.967c-2.175-1.055-5.649-1.923-7.203-0.868
			c-1.615,1.116-2.545,4.78-2.11,6.955c0.557,2.606,2.545,5.215,4.469,7.265c23.411,25.335,51.914,42.286,85.508,50.049
			c40.113,9.252,80.041,8.757,119.409-4.286c2.236-0.742,4.472-1.615,6.645-2.605c2.112-0.933,4.223-2.113,7.142-2.609
			c-4.347,6.335-8.445,12.792-12.979,18.939c-30.553,40.982-69.733,69.795-119.162,84.201c-31.544,9.192-63.09,7.886-94.448,0.249
			c-52.409-12.791-100.531-34.774-142.014-69.919c-12.916-10.931-25.086-22.729-33.592-37.568
			c-3.292-5.714-6.087-11.924-7.638-18.193C324.46,490.589,322.411,487.36,318.062,486.057L318.062,486.057z M699.58,360.873
			c-6.088,0.559-12.232,0.807-18.258,1.737c-9.313,1.492-18.192,4.533-25.582,10.62c-6.521,5.34-5.775,13.039,1.489,17.137
			c2.919,1.615,6.209,2.796,9.438,3.665c14.719,4.038,29.746,2.982,44.647,1.304c7.638-0.869,15.215-3.292,22.417-6.084
			c4.968-1.927,8.693-6.148,8.445-12.235c-0.248-5.774-4.968-7.885-9.191-9.874C722.432,362.3,711.13,360.934,699.58,360.873
			L699.58,360.873z M524.655,428.866c8.818,0,15.71-6.209,15.71-14.033c-0.062-7.763-7.266-14.22-15.771-14.159
			c-8.879,0.064-15.525,6.148-15.587,14.159C509.007,422.657,515.837,428.805,524.655,428.866L524.655,428.866z M593.022,767.104
			c-4.099,0-8.011,0.249-11.858-0.125c-1.056-0.125-2.484-1.923-2.796-3.229c-2.855-11.177-5.279-22.54-8.384-33.654
			c-1.178-4.347-3.413-8.57-5.961-12.357c-3.849-5.775-10.309-6.521-14.654-1.12c-4.221,5.219-7.946,11.115-10.556,17.327
			c-3.786,9.066-6.521,18.567-9.19,28.066c-1.117,3.913-2.484,5.961-6.83,5.28c-2.423-0.373-5.029-0.064-8.072-0.064
			c0.621-16.27,1.181-32.04,1.802-49.242c-3.852,1.925-6.769,2.857-9.005,4.596c-5.154,4.161-10.246,8.445-14.904,13.164
			c-8.445,8.631-16.639,17.574-24.837,26.515c-5.154,5.589-6.955,6.147-15.834,4.1c10.495-17.823,20.927-35.456,31.669-53.527
			c-10.308-2.981-19.312-7.077-23.163-17.637c-2.423-6.58-2.05-13.1,0.62-19.868c0.621,2.297,1.119,4.655,1.801,6.955
			c3.478,11.859,13.911,18.006,25.647,14.468c3.041-0.933,6.396-3.478,8.072-6.147c10.308-16.643,20.242-33.533,30.055-50.422
			c1.801-3.105,3.6-3.665,6.955-3.105c16.144,2.545,32.352,4.968,48.621,0.683c3.538-0.931,6.955-2.423,10.741-3.786
			C593.022,678.119,593.022,722.206,593.022,767.104L593.022,767.104z M593.022,767.104"/>
	</g>
</g>
</svg>
