<?xml version="1.0" encoding="utf-8"?>
<!-- Generator: Adobe Illustrator 16.0.0, SVG Export Plug-In . SVG Version: 6.00 Build 0)  -->
<!DOCTYPE svg PUBLIC "-//W3C//DTD SVG 1.1//EN" "http://www.w3.org/Graphics/SVG/1.1/DTD/svg11.dtd">
<svg version="1.1" id="Layer_1" xmlns="http://www.w3.org/2000/svg" xmlns:xlink="http://www.w3.org/1999/xlink" x="0px" y="0px"
	 width="1024px" height="1024px" viewBox="0 0 1024 1024" enable-background="new 0 0 1024 1024" xml:space="preserve">
<g id="Page-1">
	<g id="social-network-icon" transform="translate(-83.000000, -480.000000)">
		<path id="line_L" fill="#040000" stroke="#FFFFFF" stroke-miterlimit="10" d="M565.878,1225.167
			c-180.583-11.647-322.658-134.39-322.658-284.11c0-157.407,157.052-285.01,350.78-285.01c193.717,0,350.78,127.603,350.78,285.01
			c0,71.124-32.05,136.125-85.062,186.051c-5.309,5.011-128.78,123.321-284.838,196.608c-6.969,3.275-20.404-5.074-21.72-15.072
			c-1.38-10.513,12.011-24.601,14.387-39.737C572.087,1239.982,565.889,1225.167,565.878,1225.167z M401.118,882.201
			c0-6.487-1.478-11.326-4.443-14.495c-2.964-3.18-6.829-4.774-11.614-4.774c-4.71,0-8.511,1.605-11.401,4.816
			c-2.891,3.212-4.335,8.028-4.335,14.452v120.859c0,6.851,1.52,11.818,4.549,14.88c3.03,3.062,8.007,4.604,14.933,4.604h76.755
			c5.213,0,9.175-1.199,11.882-3.575c2.709-2.398,4.068-5.523,4.068-9.377c0-3.78-1.37-6.917-4.122-9.421
			c-2.751-2.494-6.69-3.747-11.829-3.747h-64.443V882.201z M491.05,1005.843c0,6.423,1.488,11.262,4.442,14.517
			c2.965,3.254,6.734,4.859,11.294,4.859c4.785,0,8.66-1.605,11.615-4.817c2.965-3.211,4.442-8.049,4.442-14.559V882.201
			c0-6.487-1.477-11.326-4.442-14.495c-2.955-3.18-6.83-4.774-11.615-4.774c-4.635,0-8.414,1.605-11.347,4.816
			c-2.923,3.212-4.389,8.028-4.389,14.452V1005.843z M593.818,881.986c-1.713-2.708-3.372-5.309-4.978-7.814
			c-1.605-2.494-3.168-4.528-4.71-6.102c-1.53-1.562-3.319-2.814-5.352-3.746c-2.034-0.921-4.475-1.392-7.333-1.392
			c-3.639,0-7.022,1.027-10.169,3.061c-3.137,2.034-5.384,4.646-6.744,7.857c-1.135,2.933-1.713,6.958-1.713,12.097v121.073
			c0,5.931,1.359,10.448,4.067,13.552c2.719,3.105,6.316,4.646,10.812,4.646c4.357,0,7.921-1.52,10.705-4.603
			c2.784-3.062,4.175-7.601,4.175-13.596v-91.956l59.638,91.42c1.713,2.505,3.425,4.946,5.138,7.344
			c1.713,2.377,3.554,4.475,5.566,6.253c1.99,1.775,4.133,3.103,6.424,3.916c2.269,0.814,4.838,1.221,7.707,1.221
			c11.412,0,17.128-6.872,17.128-20.66V881.13c0-6.06-1.328-10.608-3.981-13.639c-2.613-3.04-6.23-4.56-10.792-4.56
			c-4.431,0-7.942,1.52-10.554,4.56c-2.591,3.03-3.919,7.579-3.919,13.639v93.347L593.818,881.986z M745.926,890.123h71.638
			c5.052,0,8.819-1.113,11.282-3.362c2.463-2.248,3.703-5.234,3.703-8.95c0-3.639-1.24-6.572-3.703-8.821
			c-2.463-2.248-6.23-3.383-11.282-3.383h-83.928c-4.497,0-8.2,0.664-11.091,1.991c-2.891,1.317-5.009,3.426-6.379,6.317
			c-1.328,2.89-2.013,6.615-2.013,11.175v117.969c0,6.851,1.498,11.818,4.538,14.88c3.04,3.062,8.007,4.604,14.944,4.604h86.368
			c5.009,0,8.777-1.156,11.305-3.469c2.525-2.312,3.811-5.353,3.811-9.056c0-3.854-1.285-6.937-3.811-9.249
			c-2.527-2.323-6.296-3.49-11.305-3.49h-74.078v-44.641h65.941c4.925,0,8.564-1.112,10.92-3.361
			c2.354-2.248,3.554-5.159,3.554-8.735c0-3.565-1.199-6.433-3.597-8.606c-2.397-2.184-5.995-3.276-10.877-3.276h-65.941V890.123z"
			/>
	</g>
</g>
</svg>
