<?xml version="1.0" encoding="utf-8"?>
<!-- Generator: Adobe Illustrator 16.0.0, SVG Export Plug-In . SVG Version: 6.00 Build 0)  -->
<!DOCTYPE svg PUBLIC "-//W3C//DTD SVG 1.1//EN" "http://www.w3.org/Graphics/SVG/1.1/DTD/svg11.dtd">
<svg version="1.1" id="Layer_1" xmlns="http://www.w3.org/2000/svg" xmlns:xlink="http://www.w3.org/1999/xlink" x="0px" y="0px"
	 width="1024px" height="1024px" viewBox="0 0 1024 1024" enable-background="new 0 0 1024 1024" xml:space="preserve">
<g>
	<g>
		<defs>
			<rect id="SVGID_1_" x="293.758" y="297" width="448.073" height="429"/>
		</defs>
		<clipPath id="SVGID_2_">
			<use xlink:href="#SVGID_1_"  overflow="visible"/>
		</clipPath>
		<path clip-path="url(#SVGID_2_)" d="M395.387,436.592v288.796H299.22V436.592H395.387z M401.508,347.416
			c0.194,14.182-4.711,26.032-14.716,35.552c-10.006,9.519-23.169,14.281-39.49,14.281h-0.583c-15.93,0-28.754-4.762-38.468-14.281
			c-9.714-9.52-14.569-21.371-14.569-35.552c0-14.378,5.003-26.276,15.008-35.699c10.005-9.422,23.071-14.134,39.195-14.134
			c16.126,0,29.045,4.712,38.759,14.134C396.358,321.14,401.314,333.038,401.508,347.416L401.508,347.416z M741.303,559.862v165.525
			h-95.878V570.936c0-20.399-3.933-36.378-11.802-47.938c-7.868-11.562-20.157-17.341-36.864-17.341
			c-12.239,0-22.488,3.353-30.746,10.055c-8.257,6.703-14.425,15.009-18.504,24.917c-2.137,5.826-3.205,13.695-3.205,23.604v161.156
			h-95.878c0.388-77.519,0.582-140.368,0.582-188.55c0-48.179-0.097-76.934-0.292-86.259l-0.291-13.987h95.878v41.964h-0.582
			c3.884-6.218,7.866-11.656,11.947-16.321c4.079-4.662,9.566-9.714,16.465-15.153c6.896-5.441,15.347-9.667,25.353-12.678
			c10.005-3.01,21.129-4.517,33.368-4.517c33.221,0,59.936,11.027,80.141,33.078C731.2,485.015,741.303,517.314,741.303,559.862
			L741.303,559.862z M741.303,559.862"/>
	</g>
</g>
</svg>
