<?xml version="1.0" standalone="no"?><!DOCTYPE svg PUBLIC "-//W3C//DTD SVG 1.1//EN" "http://www.w3.org/Graphics/SVG/1.1/DTD/svg11.dtd">

<svg t="1691236986027" class="icon" version="1.1" xmlns="http://www.w3.org/2000/svg" p-id="3358" xmlns:xlink="http://www.w3.org/1999/xlink" x="0px" y="0px"
	 width="1024px" height="1024px" viewBox="0 0 1024 1024" enable-background="new 0 0 1024 1024" xml:space="preserve">
  <path d="M488.926 726.369l275.832 38.012V525.344H488.926v201.025z m29.766-171.258H734.99V730.24l-216.298-29.828V555.111zM258.697 694.754L466.093 723.3V525.344H258.697v169.41z m29.769-139.643h147.859v134.048l-147.859-20.362V555.111z m-29.769-55.31h207.396v-200.4l-207.396 28.547v171.853z m29.769-145.924l147.859-20.362v136.488H288.466V353.877z m200.46-57.543v203.467h275.832v-241.48l-275.832 38.013zM734.99 470.033H518.692v-147.74l216.298-29.826v177.566z m0 0" p-id="2810"></path></svg>
