<?xml version="1.0" encoding="utf-8"?>
<!-- Generator: Adobe Illustrator 16.0.0, SVG Export Plug-In . SVG Version: 6.00 Build 0)  -->
<!DOCTYPE svg PUBLIC "-//W3C//DTD SVG 1.1//EN" "http://www.w3.org/Graphics/SVG/1.1/DTD/svg11.dtd">
<svg version="1.1" id="Layer_1" xmlns="http://www.w3.org/2000/svg" xmlns:xlink="http://www.w3.org/1999/xlink" x="0px" y="0px"
	 width="1024px" height="1024px" viewBox="0 0 1024 1024" enable-background="new 0 0 1024 1024" xml:space="preserve">
<path d="M782.92,622.188c0-0.908,0-1.836-0.026-2.736h-0.009V448.618h-0.018c-0.119-16.202-10.904-30.604-26.374-35.271l0.019-0.035
	L700.6,397.38l-0.065,0.202l-80.2,169.723l-83.777-216.541l0.035-0.128l-86.315-24.6l-0.035,0.173l0.035-0.173
	c-3.836-1.051-7.813-1.576-11.817-1.576c-24.492,0-44.429,19.867-44.535,44.343h-0.018v257.314h0.018
	c0.142,23.15,19.005,41.941,42.178,41.941c1.355,0,2.702-0.08,4.039-0.221v0.018l35.025-3.391l-0.017-0.176h0.017V395.322
	l100.231,259.051l0.043,0.281l76.338-7.461l0.08,0.037v-0.055h0.026h-0.01l93.467-198.14v142.726h-0.017
	c0.017,0.602,0.017,1.201,0.017,1.811c0,51.07-38.036,94.803-88.539,101.797l-241.437,23.557c-2.022,0.15-4.075,0.238-6.11,0.238
	c-42.106,0-76.343-34.197-76.343-76.262v-1.254V356.45v-0.958c0-45.596,37.088-82.667,82.665-82.667
	c8.542,0,16.952,1.275,25.004,3.836l285.306,81.272l0.009-0.027c1.447,0.45,2.966,0.698,4.502,0.698
	c8.437,0,15.297-6.865,15.297-15.302c0-6.601-4.202-12.414-10.457-14.52l-0.04,0.118l0.03-0.118L427.25,240.929
	c-15.398-5.735-31.574-8.653-48.146-8.653c-76.055,0-137.931,61.851-138.023,137.892v294.509v0.203
	c0,69.949,56.939,126.846,126.931,126.846c3.58,0,7.187-0.15,10.74-0.459v0.027l276.092-26.816v0.01
	c0.044-0.01,0.114-0.01,0.171-0.027l0.371-0.018v-0.018C728.121,756.566,782.92,695.535,782.92,622.188"/>
</svg>
