<?xml version="1.0" standalone="no"?><!DOCTYPE svg PUBLIC "-//W3C//DTD SVG 1.1//EN" "http://www.w3.org/Graphics/SVG/1.1/DTD/svg11.dtd"><svg t="1691237013081" class="icon" viewBox="0 0 1024 1024" version="1.1" xmlns="http://www.w3.org/2000/svg" p-id="3083" xmlns:xlink="http://www.w3.org/1999/xlink" width="200" height="200"><path d="M374.802 249.862l98.21 293.616v-0.151l7.776 23.123c43.171 128.878 66.369 197.961 66.492 198.115 0.084 0 6.619 0.435 14.516 0.872 23.901 1.09 53.552 3.927 76.005 6.763 5.171 0.654 9.637 0.872 9.928 0.654l-97.386-291.437-9.016-26.829-50.098-149.428c-9.51-28.357-17.574-52.527-17.987-53.443l-0.641-1.942h-97.695l-0.104 0.087z m0 0" p-id="3084"></path><path d="M550.716 250.038l-0.207 115.743-0.165 115.748-9.038-26.875v-0.043l-11.681 257.623c11.477 34.182 17.617 52.421 17.678 52.507 0.083 0.086 6.617 0.522 14.516 0.917 23.923 1.087 53.551 3.925 76.089 6.761 5.169 0.654 9.656 0.873 9.924 0.654 0.27-0.218 0.413-118.232 0.352-261.985l-0.165-261.094h-97.302v0.044z m-175.914-0.22v261.55c0 143.842 0.144 261.659 0.311 261.835 0.166 0.176 8.601-0.653 18.752-1.878 10.132-1.308 24.19-2.835 31.221-3.489 10.711-1.093 42.76-3.271 46.481-3.271 1.074 0 1.158-5.892 1.301-110.815l0.166-110.815 7.856 23.123 2.688 8.2 11.786-257.403-3.928-11.912-18.195-53.226-0.621-1.899h-97.818z m0 0" p-id="3085"></path></svg>