<?xml version="1.0" encoding="utf-8"?>
<!-- Generator: Adobe Illustrator 16.0.0, SVG Export Plug-In . SVG Version: 6.00 Build 0)  -->
<!DOCTYPE svg PUBLIC "-//W3C//DTD SVG 1.1//EN" "http://www.w3.org/Graphics/SVG/1.1/DTD/svg11.dtd">
<svg version="1.1" id="Layer_1" xmlns="http://www.w3.org/2000/svg" xmlns:xlink="http://www.w3.org/1999/xlink" x="0px" y="0px"
	 width="1024px" height="1024px" viewBox="0 0 1024 1024" enable-background="new 0 0 1024 1024" xml:space="preserve">
<g>
	<g>
		<defs>
			<rect id="SVGID_1_" x="243.44" y="188" width="548.58" height="648"/>
		</defs>
		<clipPath id="SVGID_2_">
			<use xlink:href="#SVGID_1_"  overflow="visible"/>
		</clipPath>
		<path clip-path="url(#SVGID_2_)" d="M788.642,421.574c4.332,20.214,3.852,44.758-1.444,73.632
			c-20.932,106.842-88.912,160.257-203.93,160.257h-15.88c-6.018,0-11.309,1.987-15.881,5.955
			c-4.574,3.971-7.461,9.084-8.662,15.342l-1.445,6.855l-19.852,124.886l-0.722,5.415c-1.203,6.255-4.151,11.369-8.842,15.338
			c-4.691,3.972-10.046,5.955-16.063,5.955h-90.595c-5.051,0-9.025-1.805-11.912-5.414c-2.886-3.608-3.969-7.94-3.247-12.991
			c2.165-13.477,5.354-33.69,9.564-60.64c4.21-26.949,7.399-47.161,9.564-60.638c2.166-13.475,5.417-33.626,9.746-60.456
			c4.331-26.829,7.581-46.981,9.747-60.455c1.202-8.906,6.375-13.355,15.519-13.355h47.283c32.001,0.48,60.397-2.047,85.182-7.581
			c42.109-9.386,76.638-26.709,103.589-51.974c24.544-22.86,43.19-52.456,55.943-88.791c5.777-16.846,9.987-32.847,12.634-48.006
			c0.24-1.442,0.542-2.347,0.902-2.707c0.361-0.361,0.781-0.481,1.262-0.361c0.481,0.121,1.204,0.543,2.169,1.265
			C772.279,377.301,784.07,396.791,788.642,421.574L788.642,421.574z M726.559,319.79c0,25.748-5.532,54.144-16.602,85.183
			c-19.249,56.067-55.582,93.966-109.005,113.694c-27.189,9.628-57.507,14.679-90.955,15.159c0,0.239-10.828,0.361-32.483,0.361
			l-32.486-0.361c-24.062,0-38.259,11.55-42.588,34.65c-0.481,1.928-10.709,65.691-30.681,191.295
			c-0.242,2.407-1.684,3.612-4.331,3.612H260.953c-5.295,0-9.688-1.986-13.176-5.955c-3.488-3.972-4.873-8.604-4.152-13.896
			l83.739-530.939c1.203-6.979,4.512-12.753,9.925-17.324c5.416-4.574,11.612-6.858,18.588-6.858h215.84
			c8.183,0,19.912,1.563,35.19,4.69c15.281,3.13,28.695,6.979,40.246,11.551c25.746,9.866,45.417,24.664,59.013,44.396
			C719.762,268.778,726.559,292.359,726.559,319.79L726.559,319.79z M726.559,319.79"/>
	</g>
</g>
</svg>
