<?xml version="1.0" encoding="utf-8"?>
<!-- Generator: Adobe Illustrator 16.0.0, SVG Export Plug-In . SVG Version: 6.00 Build 0)  -->
<!DOCTYPE svg PUBLIC "-//W3C//DTD SVG 1.1//EN" "http://www.w3.org/Graphics/SVG/1.1/DTD/svg11.dtd">
<svg version="1.1" id="Layer_1" xmlns="http://www.w3.org/2000/svg" xmlns:xlink="http://www.w3.org/1999/xlink" x="0px" y="0px"
	 width="1024px" height="1024px" viewBox="0 0 1024 1024" enable-background="new 0 0 1024 1024" xml:space="preserve">
<style type="text/css">
	.st0{display:none;}
	.st1{display:inline;}
	.st2{display:inline;clip-path:url(#SVGID_00000125577220516607487330000007368392472212601492_);fill:#97CCF6;}

		.st3{display:inline;clip-path:url(#SVGID_00000125577220516607487330000007368392472212601492_);fill:none;stroke:#4D4D4D;stroke-miterlimit:10;}
	.st4{stroke:#FFFFFF;stroke-miterlimit:10;}
</style>
<g class="st0">
	<defs>
		<rect id="SVGID_1_" width="1024" height="1024"/>
	</defs>
	<clipPath id="SVGID_00000178895811310381623480000012041776323530505643_" class="st1">
		<use xlink:href="#SVGID_1_"  style="overflow:visible;"/>
	</clipPath>
	<path style="display:inline;clip-path:url(#SVGID_00000178895811310381623480000012041776323530505643_);fill:#97CCF6;" d="
		M784.4,1024.1H239.8c-132.5,0-241-108.4-241-241V241.3c0-132.5,108.4-241,241-241h544.6c132.5,0,241,108.4,241,241v541.8
		C1025.4,915.7,916.9,1024.1,784.4,1024.1"/>

		<path style="display:inline;clip-path:url(#SVGID_00000178895811310381623480000012041776323530505643_);fill:none;stroke:#4D4D4D;stroke-miterlimit:10;" d="
		M782.6,1024.1h-544c-132,0-240-108-240-240v-544c0-132,108-240,240-240h544c132,0,240,108,240,240v544
		C1022.6,916.1,914.6,1024.1,782.6,1024.1z"/>

		<line style="display:inline;clip-path:url(#SVGID_00000178895811310381623480000012041776323530505643_);fill:none;stroke:#4D4D4D;stroke-miterlimit:10;" x1="-1.2" y1="0.3" x2="1022.4" y2="1023.9"/>

		<line style="display:inline;clip-path:url(#SVGID_00000178895811310381623480000012041776323530505643_);fill:none;stroke:#4D4D4D;stroke-miterlimit:10;" x1="1018.9" y1="3.9" x2="2.4" y2="1020.4"/>

		<line style="display:inline;clip-path:url(#SVGID_00000178895811310381623480000012041776323530505643_);fill:none;stroke:#4D4D4D;stroke-miterlimit:10;" x1="-1.2" y1="512.1" x2="1022.4" y2="512.1"/>

		<line style="display:inline;clip-path:url(#SVGID_00000178895811310381623480000012041776323530505643_);fill:none;stroke:#4D4D4D;stroke-miterlimit:10;" x1="510.6" y1="0.1" x2="510.6" y2="1024.1"/>

		<ellipse transform="matrix(0.7071 -0.7071 0.7071 0.7071 -212.5605 511.0508)" style="display:inline;clip-path:url(#SVGID_00000178895811310381623480000012041776323530505643_);fill:none;stroke:#4D4D4D;stroke-miterlimit:10;" cx="510.6" cy="512.1" rx="442.6" ry="442.6"/>

		<rect x="69.1" y="70.6" style="display:inline;clip-path:url(#SVGID_00000178895811310381623480000012041776323530505643_);fill:none;stroke:#4D4D4D;stroke-miterlimit:10;" width="882.6" height="882.6"/>

		<ellipse transform="matrix(0.7071 -0.7071 0.7071 0.7071 -212.7763 510.9615)" style="display:inline;clip-path:url(#SVGID_00000178895811310381623480000012041776323530505643_);fill:none;stroke:#4D4D4D;stroke-miterlimit:10;" cx="510.4" cy="512.3" rx="268.4" ry="268.4"/>

		<ellipse transform="matrix(0.7071 -0.7071 0.7071 0.7071 -212.1541 512.0318)" style="display:inline;clip-path:url(#SVGID_00000178895811310381623480000012041776323530505643_);fill:none;stroke:#4D4D4D;stroke-miterlimit:10;" cx="512" cy="512.1" rx="189.1" ry="189.1"/>

		<line style="display:inline;clip-path:url(#SVGID_00000178895811310381623480000012041776323530505643_);fill:none;stroke:#4D4D4D;stroke-miterlimit:10;" x1="2.4" y1="323" x2="1025.4" y2="323"/>

		<line style="display:inline;clip-path:url(#SVGID_00000178895811310381623480000012041776323530505643_);fill:none;stroke:#4D4D4D;stroke-miterlimit:10;" x1="2.4" y1="701.2" x2="1018.9" y2="701.2"/>

		<line style="display:inline;clip-path:url(#SVGID_00000178895811310381623480000012041776323530505643_);fill:none;stroke:#4D4D4D;stroke-miterlimit:10;" x1="322.9" y1="0.3" x2="322.9" y2="1024.1"/>

		<line style="display:inline;clip-path:url(#SVGID_00000178895811310381623480000012041776323530505643_);fill:none;stroke:#4D4D4D;stroke-miterlimit:10;" x1="701.1" y1="0.3" x2="701.1" y2="1032.7"/>
</g>
<path class="st4" d="M744.8,199.1c-55.1-52.9-131.3-82-214.6-82c-127.3,0-205.5,52.2-248.8,95.9c-53.3,53.9-83.9,125.5-83.9,196.5
	c0,89.1,37.2,157.4,99.6,182.8c4.2,1.7,8.4,2.6,12.5,2.6c13.2,0,23.6-8.6,27.2-22.4c2.1-7.9,7-27.5,9.1-36c4.5-16.8,0.9-24.8-9-36.5
	c-18-21.3-26.4-46.6-26.4-79.4c0-97.6,72.7-201.3,207.3-201.3c106.9,0,173.2,60.7,173.2,158.5c0,61.7-13.3,118.8-37.4,160.9
	c-16.8,29.2-46.3,64.1-91.5,64.1c-19.6,0-37.2-8-48.3-22.1c-10.5-13.3-13.9-30.4-9.7-48.2c4.8-20.2,11.3-41.2,17.5-61.5
	c11.5-37.1,22.3-72.2,22.3-100.2c0-47.9-29.4-80-73.2-80c-55.7,0-99.2,56.5-99.2,128.7c0,35.4,9.4,61.9,13.7,72
	c-7,29.7-48.7,206.3-56.6,239.6c-4.6,19.4-32.1,173,13.5,185.2c51.2,13.8,97-135.8,101.6-152.7c3.8-13.7,17-65.7,25.1-97.6
	c24.7,23.8,64.5,39.9,103.2,39.9c73,0,138.6-32.8,184.8-92.5c44.8-57.8,69.5-138.5,69.5-227C826.4,317,796.7,248.8,744.8,199.1z"/>
</svg>
