<?xml version="1.0" encoding="utf-8"?>
<!-- Generator: Adobe Illustrator 16.0.0, SVG Export Plug-In . SVG Version: 6.00 Build 0)  -->
<!DOCTYPE svg PUBLIC "-//W3C//DTD SVG 1.1//EN" "http://www.w3.org/Graphics/SVG/1.1/DTD/svg11.dtd">
<svg version="1.1" id="Layer_1" xmlns="http://www.w3.org/2000/svg" xmlns:xlink="http://www.w3.org/1999/xlink" x="0px" y="0px"
	 width="1024px" height="1024px" viewBox="0 0 1024 1024" enable-background="new 0 0 1024 1024" xml:space="preserve">
<g>
	<path d="M266.016,403.061h132.363c28.828,0,50.419,6.855,64.775,20.566c14.354,13.711,21.533,33.223,21.533,58.535
		c0,26.016-7.822,46.349-23.467,60.996c-15.645,14.65-39.523,21.973-71.631,21.973h-43.594v95.625h-79.98V403.061z M345.996,512.924
		h19.512c15.351,0,26.131-2.664,32.344-7.998c6.21-5.331,9.316-12.156,9.316-20.479c0-8.086-2.697-14.941-8.086-20.566
		c-5.392-5.625-15.529-8.438-30.41-8.438h-22.676V512.924z"/>
	<path d="M526.699,403.061h79.629v90.176h87.012v-90.176h79.98v257.695h-79.98V556.518h-87.012v104.238h-79.629V403.061z"/>
</g>
</svg>
