<?xml version="1.0" encoding="utf-8"?>
<!-- Generator: Adobe Illustrator 16.0.0, SVG Export Plug-In . SVG Version: 6.00 Build 0)  -->
<!DOCTYPE svg PUBLIC "-//W3C//DTD SVG 1.1//EN" "http://www.w3.org/Graphics/SVG/1.1/DTD/svg11.dtd">
<svg version="1.1" id="Layer_1" xmlns="http://www.w3.org/2000/svg" xmlns:xlink="http://www.w3.org/1999/xlink" x="0px" y="0px"
	 width="1024px" height="1024px" viewBox="0 0 1024 1024" enable-background="new 0 0 1024 1024" xml:space="preserve">
<path id="QQ_L" fill="#040000"  stroke-miterlimit="10" d="M276.52,438.073c-3.376,9.011,1.576,14.723,0,49.061
	c-0.418,9.233-39.776,51.024-55.394,94.461c-15.491,43.046-17.622,88.038,6.295,105.748c23.917,17.67,46.189-58.888,49.099-47.737
	c1.275,4.846,2.852,9.905,4.759,15.121c7.657,20.861,20.511,43.941,39.145,65.543c3.785,4.378-23.051,12.435-39.145,40.127
	c-16.084,27.712,4.611,78.056,84.623,78.056c103.229,0,126.308-36.722,128.41-36.565c7.687,0.583,8.212,0,16.366,0
	c9.964,0,5.838,0.817,15.101,0c5.002-0.429,55.19,43.961,124.625,36.565c118.358-12.591,100.26-52.718,90.958-78.056
	c-9.691-26.427-43.98-38.804-42.463-40.517c28.354-31.682,32.85-51.161,42.463-80.274c3.97-11.968,31.409,65.854,52.562,47.737
	c8.815-7.57,26.447-39.038,8.815-105.748c-17.631-66.73-51.706-81.958-50.947-94.461c1.518-26.038,0.623-44.331-0.661-49.061
	c-6.306-22.943-19.461-17.884-19.461-22.943c0-132.068-98.139-239.13-219.202-239.13S293.266,283.062,293.266,415.13
	C293.266,425.609,284.07,417.864,276.52,438.073z"/>
</svg>
