<?xml version="1.0" encoding="utf-8"?>
<!-- Generator: Adobe Illustrator 16.0.0, SVG Export Plug-In . SVG Version: 6.00 Build 0)  -->
<!DOCTYPE svg PUBLIC "-//W3C//DTD SVG 1.1//EN" "http://www.w3.org/Graphics/SVG/1.1/DTD/svg11.dtd">
<svg version="1.1" id="Layer_1" xmlns="http://www.w3.org/2000/svg" xmlns:xlink="http://www.w3.org/1999/xlink" x="0px" y="0px"
	 width="1024px" height="1024px" viewBox="0 0 1024 1024" enable-background="new 0 0 1024 1024" xml:space="preserve">
<g>
	<g>
		<path d="M809.251,533.486c0-36.625-30.76-66.41-68.52-66.41c-16.354,0-31.653,5.812-44.004,15.946l-1.217,0.705
			c-44.546-27.626-103.63-45.277-168.961-47.655l39.003-107.551l97.333,22.572c0.081,29.838,25.137,54.086,55.952,54.086
			c30.812,0,55.951-24.33,55.951-54.223c0-29.921-25.14-54.25-55.951-54.25c-22.504-0.151-42.907,13.193-51.788,33.869
			l-115.336-26.733l-47.896,131.959c-68.142,1.244-129.902,19.135-176.097,47.708c-12.454-10.602-28.272-16.426-44.627-16.435
			c-37.785,0-68.491,29.785-68.491,66.41c0.177,22.81,12.125,43.908,31.598,55.789c-1.246,6.632-1.899,13.363-1.946,20.11
			c0,95.849,119.822,173.854,267.133,173.854c147.335,0,267.184-78.006,267.184-173.854c0-6.623-0.674-13.137-1.784-19.543
			C796.754,578.062,809.077,556.67,809.251,533.486L809.251,533.486z M602.258,619.494c-23.243,0-42.084-18.244-42.084-40.812
			c0-22.543,18.813-40.816,42.084-40.816c23.246,0,42.087,18.273,42.087,40.816C644.345,601.25,625.477,619.494,602.258,619.494
			L602.258,619.494z M610.638,689.097c-1.271,1.243-31.462,31.028-99.712,31.028c-68.655,0-96.062-30.19-97.225-31.489
			c-1.84-2.085-2.753-4.833-2.531-7.604c0.227-2.773,1.569-5.334,3.722-7.098c4.538-3.693,11.167-3.221,15.135,1.079
			c0.594,0.649,23.515,24.273,80.898,24.273c58.358,0,83.955-24.462,84.225-24.703c4.203-4.086,10.872-4.157,15.163-0.164
			c2.034,1.881,3.214,4.507,3.27,7.274c0.056,2.769-1.015,5.441-2.973,7.403H610.638z M384.454,578.682
			c0-22.543,18.813-40.816,42.112-40.816c23.193,0,42.059,18.273,42.059,40.816c0,22.568-18.866,40.812-42.059,40.812
			C403.268,619.494,384.454,601.25,384.454,578.682L384.454,578.682z M384.454,578.682"/>
	</g>
</g>
</svg>
