<?xml version="1.0" encoding="utf-8"?>
<!-- Generator: Adobe Illustrator 16.0.0, SVG Export Plug-In . SVG Version: 6.00 Build 0)  -->
<!DOCTYPE svg PUBLIC "-//W3C//DTD SVG 1.1//EN" "http://www.w3.org/Graphics/SVG/1.1/DTD/svg11.dtd">
<svg version="1.1" id="Layer_1" xmlns="http://www.w3.org/2000/svg" xmlns:xlink="http://www.w3.org/1999/xlink" x="0px" y="0px"
	 width="1024px" height="1024px" viewBox="0 0 1024 1024" enable-background="new 0 0 1024 1024" xml:space="preserve">
<g>
	<g>
		<defs>
			<rect id="SVGID_1_" x="241.914" y="293.003" width="543.086" height="435.917"/>
		</defs>
		<clipPath id="SVGID_2_">
			<use xlink:href="#SVGID_1_"  overflow="visible"/>
		</clipPath>
		<path clip-path="url(#SVGID_2_)" d="M459.853,728.194c-5.151-0.389-10.31-0.731-15.458-1.179
			c-35.511-3.094-70.393-9.21-103.817-22.051c-22.089-8.485-42.461-19.892-59.757-36.301
			c-19.703-18.692-31.813-41.459-37.134-68.062c-3.5-17.486-1.503-34.496,3.211-51.379c7.779-27.867,22.228-52.201,39.945-74.766
			c20.039-25.514,42.123-49.079,67.317-69.586c20.189-16.435,41.683-30.826,66.483-39.488c13.724-4.793,27.726-8.547,42.467-8.379
			c23.312,0.261,37.699,12.48,42.061,35.345c1.915,10.053,1.131,19.82-1.392,29.618c-0.744,2.893-1.083,5.951-1.137,8.941
			c-0.074,4.331,2.156,6.824,6.444,6.343c5.374-0.601,10.913-1.466,15.898-3.432c15.546-6.135,31.253-11.592,47.812-14.181
			c13.698-2.14,27.408-2.855,40.797,1.818c16.741,5.842,27.655,21.626,27.181,39.32c-0.289,10.758-3.294,20.782-8.904,29.985
			c-2.858,4.686-1.978,8.857,2.958,11.335c2.905,1.46,6.146,2.325,9.311,3.168c20.85,5.555,38.236,16.309,50.585,34.255
			c9.891,14.373,12.572,30.537,9.791,47.529c-4.7,28.733-19.093,52.29-39.856,72.16c-22.985,22.005-50.337,36.893-79.913,47.927
			c-24.265,9.052-49.282,15.184-75.017,18.213c-8.417,0.989-16.882,1.561-25.324,2.348c-1.022,0.095-2.033,0.328-3.05,0.498
			C474.188,728.194,467.021,728.194,459.853,728.194L459.853,728.194z M440.227,698.348c4.148,0,8.3,0.104,12.443-0.019
			c23.268-0.671,45.82-5.133,67.618-13.229c23.106-8.58,44.24-20.496,62.107-37.727c12.437-11.995,22.566-25.619,28.241-42.096
			c9.487-27.534,5.013-52.556-14.423-74.507c-11.349-12.813-25.675-21.449-41.244-28.108c-21.62-9.246-44.385-13.728-67.711-15.444
			c-21.418-1.577-42.797-0.682-63.973,2.949c-28.958,4.964-56.354,14.271-81.062,30.571c-13.999,9.233-26.252,20.318-35.322,34.547
			c-14.917,23.398-17.99,48.045-6.517,73.723c7.684,17.204,20.493,30.163,36.025,40.413
			C367.874,690.186,403.143,697.684,440.227,698.348L440.227,698.348z M440.227,698.348"/>
		<path clip-path="url(#SVGID_2_)" d="M784.522,426.804c-0.23,18.549-3.571,36.551-8.753,54.268
			c-0.475,1.623-0.822,3.286-1.218,4.933c-2.021,8.397-6.144,12.245-14.724,13.15c-9.555,1.004-18.149-0.79-23.518-9.81
			c-3.023-5.08-2.727-10.734-1.624-16.226c1.037-5.15,2.608-10.2,4.063-15.259c4.75-16.497,3.824-32.895-0.136-49.424
			c-6.412-26.742-23.574-44.771-46.621-57.859c-18.368-10.434-38.312-15.772-59.521-14.998c-5.618,0.204-11.158,2.414-16.75,3.619
			c-5.229,1.128-10.413,2.44-15.831,0.56c-8.304-2.881-14.114-10.51-14.414-19.391c-0.307-9.068,4.994-17.056,13.121-20.592
			c8.477-3.689,17.516-4.255,26.461-5.207c17.154-1.827,34.306-1.656,51.153,2.458c30.825,7.522,57.518,22.251,78.467,46.456
			c16.788,19.396,26.138,42.075,28.777,67.535C784.001,416.262,784.178,421.542,784.522,426.804L784.522,426.804z M784.522,426.804"
			/>
	</g>
	<path d="M702.851,437.134c-0.466,6.358-0.725,12.481-1.396,18.56c-0.948,8.541-8.419,14.033-16.881,12.699
		c-7.872-1.241-12.837-8.684-11.649-16.887c1.556-10.739,1.564-21.421-2.628-31.709c-4.556-11.182-13.118-17.045-24.865-18.698
		c-7.292-1.025-14.52-0.416-21.612,1.205c-6.244,1.426-12.543-2.43-14.974-6.676c-3.07-5.36-2.82-12.348,1.453-16.821
		c2.095-2.191,5.094-4.308,7.979-4.826c16.396-2.95,32.693-2.352,48.378,3.78c19.531,7.64,30.256,22.584,34.113,42.77
		C701.825,426.061,702.19,431.725,702.851,437.134L702.851,437.134z M702.851,437.134"/>
	<path d="M357.252,614.224c0.262-21.014,4.829-39.759,17.052-56.108c10.191-13.633,23.933-22.267,39.985-27.182
		c18.642-5.707,37.623-7.239,56.94-3.586c28.762,5.439,51.132,29.273,54.792,58.463c1.832,14.62,0.701,28.813-5.905,42.173
		c-5.606,11.338-14.507,19.9-24.549,27.257c-18.99,13.907-40.425,20.394-63.875,19.465c-20.442-0.808-39.583-6.488-56.407-18.374
		c-10.492-7.413-15.657-18.324-17.257-30.917C357.518,621.401,357.459,617.332,357.252,614.224L357.252,614.224z M408.34,644.224
		c14.042-0.66,23.023-4.997,30.088-13.436c10.057-12.013,6.972-28.866-6.9-35.666c-18.949-9.293-41.71,0.678-46.875,21.253
		c-2.08,8.281-0.265,15.687,6.539,21.438C396.887,642.634,403.562,644.315,408.34,644.224L408.34,644.224z M449.517,591.344
		c0.015,7.325,5.369,11.745,12.23,10.104c6.215-1.49,11.339-8.246,11.118-14.657c-0.197-5.675-4.573-9.739-10.148-9.43
		C455.419,577.768,449.499,584.04,449.517,591.344L449.517,591.344z M449.517,591.344"/>
</g>
</svg>
