<?xml version="1.0" encoding="utf-8"?>
<!-- Generator: Adobe Illustrator 16.0.0, SVG Export Plug-In . SVG Version: 6.00 Build 0)  -->
<!DOCTYPE svg PUBLIC "-//W3C//DTD SVG 1.1//EN" "http://www.w3.org/Graphics/SVG/1.1/DTD/svg11.dtd">
<svg version="1.1" id="Layer_1" xmlns="http://www.w3.org/2000/svg" xmlns:xlink="http://www.w3.org/1999/xlink" x="0px" y="0px"
	 width="1024px" height="1024px" viewBox="0 0 1024 1024" enable-background="new 0 0 1024 1024" xml:space="preserve">
<g>
	<g>
		<g>
			<defs>
				<rect id="SVGID_1_" x="192" y="192" width="640" height="640"/>
			</defs>
			<clipPath id="SVGID_2_">
				<use xlink:href="#SVGID_1_"  overflow="visible"/>
			</clipPath>
			<path clip-path="url(#SVGID_2_)" fill="#040000" d="M540.79,456.718l27.569,82.308l-85.421,28.53l-27.569-82.309L540.79,456.718z
				 M599.928,804.354C379.949,870.258,284.82,819.189,218.824,599.51c-65.991-219.685-14.853-314.688,205.122-380.595
				c219.974-65.903,315.108-14.833,381.1,204.849C871.04,643.442,819.901,738.451,599.928,804.354L599.928,804.354z
				 M715.055,524.476c-5.569-17.402-24.568-26.535-41.995-20.969l-41.422,13.837l-27.566-82.31l41.422-13.836
				c17.428-5.565,26.565-24.535,20.996-41.941c-5.569-17.404-24.567-26.532-41.994-20.97l-41.426,13.837l-14.285-42.938
				c-5.57-17.403-24.568-26.531-41.994-20.97c-17.427,5.566-26.568,24.536-20.997,41.943l14.285,42.937l-85.419,28.673
				l-14.284-42.938c-5.571-17.406-24.569-26.535-41.995-20.972c-17.427,5.565-26.572,24.539-20.998,41.942l14.284,42.938
				l-41.426,13.835c-17.426,5.563-26.566,24.537-20.998,41.939c4.573,13.265,17.426,21.969,30.711,22.54
				c6.144,0.854,10.999-1.429,52.71-15.266l27.565,82.31l-41.421,13.836c-17.429,5.563-26.57,24.535-21.001,41.939
				c4.573,13.27,17.43,21.969,30.712,22.54c6.141,0.856,11-1.429,52.708-15.266l14.284,42.938
				c5.288,15.407,22.57,26.535,41.995,20.969c17.426-5.562,26.57-24.535,20.997-41.938l-14.283-42.939l85.421-28.673l14.283,42.938
				c5.284,15.408,22.567,26.534,41.996,20.97c17.426-5.562,26.564-24.536,20.997-41.938l-14.284-42.938l41.422-13.839
				C711.484,560.708,720.628,541.734,715.055,524.476L715.055,524.476z"/>
		</g>
	</g>
</g>
</svg>
