<?xml version="1.0" standalone="no"?><!DOCTYPE svg PUBLIC "-//W3C//DTD SVG 1.1//EN" "http://www.w3.org/Graphics/SVG/1.1/DTD/svg11.dtd"><svg t="1691236791547" class="icon" viewBox="0 0 1024 1024" version="1.1" xmlns="http://www.w3.org/2000/svg" p-id="2535" xmlns:xlink="http://www.w3.org/1999/xlink" width="200" height="200"><path d="M347.787 506.53c-16.849-7.487-31.83-11.233-36.509-15.912-13.107-14.045 10.298-26.216 20.596-20.599 28.085 14.981 44.002 3.747 44.002 3.747V369.849c0-33.706 37.447-102.982 135.747-102.982 97.362 0 134.81 70.215 134.81 102.982V470.02s8.425 7.487 22.465 7.487c14.044 0 23.406-8.424 32.768-7.487 9.364 0.936 24.341 13.105 1.875 27.151-22.469 13.107-51.49 6.554-51.49 39.318 0 32.764 50.553 87.068 104.854 105.788 54.297 19.662-58.047 35.573-58.047 35.573s-3.742 32.768-8.425 36.515c-1.872 1.872-19.66-9.365-57.106-7.491-36.512 2.81-57.109 48.68-121.704 48.68-64.597 0-75.832-40.252-114.216-48.68-38.384-8.425-61.789 6.554-65.533 3.744-3.745-2.811-1.872-32.768-11.233-32.768s-107.662-23.404-51.492-35.573c56.173-12.168 102.043-85.194 102.043-105.788 0.937-16.852-5.619-22.47-23.405-29.959z m0 0" p-id="2536"></path></svg>