<?xml version="1.0" encoding="utf-8"?>
<!-- Generator: Adobe Illustrator 16.0.0, SVG Export Plug-In . SVG Version: 6.00 Build 0)  -->
<!DOCTYPE svg PUBLIC "-//W3C//DTD SVG 1.1//EN" "http://www.w3.org/Graphics/SVG/1.1/DTD/svg11.dtd">
<svg version="1.1" id="Layer_1" xmlns="http://www.w3.org/2000/svg" xmlns:xlink="http://www.w3.org/1999/xlink" x="0px" y="0px"
	 width="1024px" height="1024px" viewBox="0 0 1024 1024" enable-background="new 0 0 1024 1024" xml:space="preserve">
<g>
	<path d="M721.906,371.738h-3.511l-50.703,402.405l-1.25-0.13c-1.587,4.618-5.191,8.265-9.789,9.906v1.099H373.883v-1.087
		c-4.601-1.645-8.201-5.29-9.788-9.907l-1.25,0.119l-50.704-402.405h-3.513c-18.019,0-32.628-14.608-32.628-32.627v-21.753
		c0-18.018,14.609-32.627,32.628-32.627h413.278c18.021,0,32.628,14.609,32.628,32.627v21.753c0,8.653-3.435,16.95-9.555,23.07
		C738.86,368.3,730.562,371.738,721.906,371.738L721.906,371.738z M393.457,752.39h243.619l47.963-380.652h-339.5L393.457,752.39z
		 M721.906,317.357H308.628v21.753h413.278V317.357z M515.27,578.377c-48.054,0-87.009-38.952-87.009-87.006
		c0-48.053,38.955-87.005,87.009-87.005c48.051,0,87.004,38.952,87.004,87.005c0,23.075-9.166,45.207-25.482,61.524
		C560.475,569.211,538.344,578.377,515.27,578.377L515.27,578.377z M515.27,436.991c-21.998,0-41.823,13.25-50.24,33.572
		c-8.417,20.319-3.765,43.708,11.788,59.26c15.55,15.554,38.942,20.204,59.261,11.789c20.321-8.417,33.567-28.246,33.567-50.24
		C569.646,461.34,545.301,436.991,515.27,436.991L515.27,436.991z M640.34,273.855H390.195c-9.008,0-16.312-7.304-16.312-16.314
		c0-9.008,7.304-16.313,16.312-16.313H640.34c9.01,0,16.313,7.305,16.313,16.313C656.653,266.551,649.35,273.855,640.34,273.855
		L640.34,273.855z M640.34,273.855"/>
</g>
</svg>
