<?xml version="1.0" encoding="utf-8"?>
<!-- Generator: Adobe Illustrator 16.0.0, SVG Export Plug-In . SVG Version: 6.00 Build 0)  -->
<!DOCTYPE svg PUBLIC "-//W3C//DTD SVG 1.1//EN" "http://www.w3.org/Graphics/SVG/1.1/DTD/svg11.dtd">
<svg version="1.1" id="Layer_1" xmlns="http://www.w3.org/2000/svg" xmlns:xlink="http://www.w3.org/1999/xlink" x="0px" y="0px"
	 width="1024px" height="1024px" viewBox="0 0 1024 1024" enable-background="new 0 0 1024 1024" xml:space="preserve">
<g>
	<path id="SVGID_1_" d="M408.438,366.076c21.274-35.822,29.106-71.646,29.106-71.646l61.575,24.636l-17.912,34.7
		c0,0,4.479,4.478,20.15,2.247c15.682-2.247,118.673-53.751,189.203-41.425c71.491,12.473,115.317,68.292,115.317,111.947V635.89
		c0,0-7.84,63.814-62.698,86.204c-54.857,22.391-138.822,5.603-138.822,5.603l4.479-34.716c0,0,50.381,11.201,81.727,1.122
		c31.345-10.079,40.301-34.698,40.301-34.698V409.748c0,0-4.479-25.76-33.584-43.672c-29.106-17.911-43.663-15.664-75.01-11.187
		c-31.346,4.479-79.485,26.868-79.485,26.868l-26.867,52.61h181.362v35.823H586.447v44.796h115.31v31.345l-113.069,4.479v85.079
		l53.733-23.513l-4.479-36.946l43.664-8.956l32.469,85.098l-53.734,24.62l-6.725-30.223c0,0-101.625,42.81-142.381,46.163
		c-40.767,3.354-80.808-6.367-100.225-33.918c-19.409-27.535-14.884-82.784-14.884-82.784l72.453,1.809c0,0-5.65,31.475,8.613,51.39
		c14.256,19.897,46.562,15.095,46.562,15.095v-95.158L411.8,545.21v-30.222h113.07l-1.115-44.796l-34.708-6.708
		c0,0-29.105,44.777-48.142,43.654c-19.035-1.106-21.273-26.867-21.273-26.867l61.574-76.125l-33.584-3.354l-50.38,59.336
		l-38.062-33.593C359.182,426.536,387.173,401.899,408.438,366.076z M279.695,413.103c0,0,97.398,63.814,104.115,114.194
		c6.718,50.381-80.959,203.753-80.959,203.753l-84.73-61.566c0,0,118.672-97.406,111.956-129.875
		c-6.716-32.47-88.442-72.771-88.442-72.771L279.695,413.103z M325.288,390.306c-27.625,0-50.022-22.389-50.022-50.021
		c0-27.632,22.397-50.021,50.022-50.021s50.021,22.389,50.021,50.021C375.31,367.917,352.913,390.306,325.288,390.306z"/>
</g>
</svg>
