<?xml version="1.0" encoding="utf-8"?>
<!-- Generator: Adobe Illustrator 16.0.0, SVG Export Plug-In . SVG Version: 6.00 Build 0)  -->
<!DOCTYPE svg PUBLIC "-//W3C//DTD SVG 1.1//EN" "http://www.w3.org/Graphics/SVG/1.1/DTD/svg11.dtd">
<svg version="1.1" id="Layer_1" xmlns="http://www.w3.org/2000/svg" xmlns:xlink="http://www.w3.org/1999/xlink" x="0px" y="0px"
	 width="1024px" height="1024px" viewBox="0 0 1024 1024" enable-background="new 0 0 1024 1024" xml:space="preserve">
<g>
	<g>
		<g>
			<defs>
				<rect id="SVGID_1_" x="240" y="240" width="543.151" height="544"/>
			</defs>
			<clipPath id="SVGID_2_">
				<use xlink:href="#SVGID_1_"  overflow="visible"/>
			</clipPath>
			<path clip-path="url(#SVGID_2_)" fill="#040000" d="M722.318,240.424c33.167,0,60.302,27.135,60.302,60.303v422.122
				c0,33.468-27.135,60.302-60.302,60.302H300.196c-33.167,0-60.302-27.135-60.302-60.302V300.727
				c0-33.167,27.135-60.303,60.302-60.303H722.318 M511.258,300.727c-116.686,0-211.062,94.375-211.062,211.061
				c0,116.688,94.376,211.062,211.062,211.062c116.688,0,211.061-94.375,211.061-211.062
				C722.318,395.103,627.945,300.727,511.258,300.727 M360.501,511.787l90.454-90.453v60.301H571.56v-60.301l90.457,90.453
				l-90.457,90.457v-60.306H450.956v60.306L360.501,511.787z"/>
		</g>
	</g>
</g>
</svg>
