<?xml version="1.0" encoding="utf-8"?>
<!-- Generator: Adobe Illustrator 16.0.0, SVG Export Plug-In . SVG Version: 6.00 Build 0)  -->
<!DOCTYPE svg PUBLIC "-//W3C//DTD SVG 1.1//EN" "http://www.w3.org/Graphics/SVG/1.1/DTD/svg11.dtd">
<svg version="1.1" id="Layer_1" xmlns="http://www.w3.org/2000/svg" xmlns:xlink="http://www.w3.org/1999/xlink" x="0px" y="0px"
	 width="1024px" height="1024px" viewBox="0 0 1024 1024" enable-background="new 0 0 1024 1024" xml:space="preserve">
<circle fill="#040000" cx="439.608" cy="418.99" r="22.603"/>
<path fill="#040000" d="M422.462,457.959h33.514c1.721,0,3.117,1.396,3.117,3.118v200.697c0,1.723-1.396,3.118-3.117,3.118h-33.514
	c-1.723,0-3.119-1.396-3.119-3.118V461.077C419.343,459.355,420.739,457.959,422.462,457.959z"/>
<path fill="#040000" d="M495.726,396.387h33.515c1.722,0,3.117,1.396,3.117,3.118v261.802c0,1.723-1.396,3.118-3.117,3.118h-33.515
	c-1.723,0-3.119-1.396-3.119-3.118V399.504C492.607,397.783,494.003,396.387,495.726,396.387z"/>
<path fill="#040000" d="M385.05,457.959h-77.942v-58.455c0-1.722-1.396-3.118-3.118-3.118l0,0h-33.514
	c-1.722,0-3.118,1.396-3.118,3.118v161.337c0,57.25,46.411,103.661,103.661,103.661h14.03c1.721,0,3.117-1.396,3.117-3.118l0,0
	v-33.514c0-1.723-1.396-3.118-3.117-3.118h-14.03c-35.297,0-63.912-28.614-63.912-63.911v-63.911h77.942
	c1.721,0,3.117-1.396,3.117-3.118v-33.514C387.804,458.885,386.508,457.914,385.05,457.959z M734.224,488.357
	c-40.222-40.133-105.363-40.061-145.495,0.162c-40.135,40.222-40.062,105.362,0.16,145.497
	c40.223,40.133,105.363,40.061,145.496-0.162c7.05-7.066,13.035-15.119,17.766-23.909c0-0.779-0.779-1.559-1.56-1.559h-42.867
	l-4.676,1.559c-26.778,22.996-67.129,19.93-90.125-6.849c-7.3-8.501-12.237-18.772-14.316-29.783c0-1.292,1.048-2.339,2.339-2.339
	h160.559c1.721,0,3.116-1.396,3.116-3.117l0,0v-6.235C764.688,534.118,753.741,507.733,734.224,488.357L734.224,488.357z
	 M715.518,535.122H606.4c-1.29,0-2.338-1.048-2.338-2.338c10.938-20.917,32.515-34.104,56.118-34.295
	c23.653,0.017,45.312,13.253,56.117,34.295C716.503,533.647,716.201,534.553,715.518,535.122L715.518,535.122z"/>
</svg>
