<?xml version="1.0" encoding="utf-8"?>
<!-- Generator: Adobe Illustrator 16.0.0, SVG Export Plug-In . SVG Version: 6.00 Build 0)  -->
<!DOCTYPE svg PUBLIC "-//W3C//DTD SVG 1.1//EN" "http://www.w3.org/Graphics/SVG/1.1/DTD/svg11.dtd">
<svg version="1.1" id="Layer_1" xmlns="http://www.w3.org/2000/svg" xmlns:xlink="http://www.w3.org/1999/xlink" x="0px" y="0px"
	 width="1024px" height="1024px" viewBox="0 0 1024 1024" enable-background="new 0 0 1024 1024" xml:space="preserve">
<g>
	<g>
		<defs>
			<rect id="SVGID_1_" x="288.609" y="240" width="471.831" height="544"/>
		</defs>
		<clipPath id="SVGID_00000137114227002462143300000012760485518707775926_">
			<use xlink:href="#SVGID_1_"  overflow="visible"/>
		</clipPath>
		<path clip-path="url(#SVGID_00000137114227002462143300000012760485518707775926_)" d="M536.286,240.798
			c29.639-0.453,59.049-0.228,88.462-0.453c1.81,34.615,14.254,69.908,39.592,94.345c25.34,25.113,61.087,36.65,95.929,40.498
			v91.175c-32.58-1.131-65.384-7.918-95.023-21.946c-12.897-5.883-24.887-13.347-36.653-21.04
			c-0.225,66.063,0.228,132.126-0.451,197.962c-1.81,31.676-12.218,63.122-30.545,89.14
			c-29.639,43.439-80.995,71.721-133.709,72.625c-32.354,1.81-64.706-7.014-92.309-23.303
			c-45.699-26.922-77.826-76.244-82.577-129.185c-0.453-11.312-0.681-22.625-0.228-33.711
			c4.073-42.986,25.341-84.162,58.371-112.216c37.556-32.58,90.046-48.19,139.14-38.916c0.453,33.486-0.904,66.969-0.904,100.453
			c-22.399-7.239-48.643-5.205-68.326,8.37c-14.254,9.278-25.112,23.531-30.77,39.594c-4.751,11.537-3.394,24.206-3.166,36.425
			c5.429,37.103,41.176,68.326,79.185,64.932c25.337-0.225,49.547-14.932,62.669-36.425c4.298-7.467,9.049-15.16,9.277-23.981
			c2.263-40.5,1.357-80.769,1.582-121.267C536.061,422.696,535.608,331.748,536.286,240.798L536.286,240.798z M536.286,240.798"/>
	</g>
</g>
</svg>
