<?xml version="1.0" encoding="utf-8"?>
<!-- Generator: Adobe Illustrator 16.0.0, SVG Export Plug-In . SVG Version: 6.00 Build 0)  -->
<!DOCTYPE svg PUBLIC "-//W3C//DTD SVG 1.1//EN" "http://www.w3.org/Graphics/SVG/1.1/DTD/svg11.dtd">
<svg version="1.1" id="Layer_1" xmlns="http://www.w3.org/2000/svg" xmlns:xlink="http://www.w3.org/1999/xlink" x="0px" y="0px"
	 width="1024px" height="1024px" viewBox="0 0 1024 1024" enable-background="new 0 0 1024 1024" xml:space="preserve">
<g>
	<path d="M744.949,200H277.852C234.894,200,200,234.893,200,277.852v467.098c0,42.958,34.894,77.852,77.852,77.852h467.098
		c42.958,0,77.852-34.894,77.852-77.852V277.852C822.801,234.893,787.907,200,744.949,200L744.949,200z M470.946,671.826
		c0,20.574-16.681,37.395-37.395,37.395H318.304c-20.575,0-37.395-16.682-37.395-37.395V318.304
		c0-20.575,16.681-37.395,37.395-37.395h115.247c20.574,0,37.395,16.682,37.395,37.395V671.826z M741.892,516.127
		c0,20.574-16.682,37.395-37.395,37.395H589.25c-20.574,0-37.396-16.682-37.396-37.395V318.304
		c0-20.575,16.682-37.395,37.396-37.395h115.247c20.574,0,37.395,16.682,37.395,37.395V516.127z M741.892,516.127"/>
</g>
</svg>
