<?xml version="1.0" standalone="no"?><!DOCTYPE svg PUBLIC "-//W3C//DTD SVG 1.1//EN" "http://www.w3.org/Graphics/SVG/1.1/DTD/svg11.dtd"><svg t="1691237148490" class="icon" viewBox="0 0 1024 1024" version="1.1" xmlns="http://www.w3.org/2000/svg" p-id="3221" xmlns:xlink="http://www.w3.org/1999/xlink" width="200" height="200"><path d="M645.939 640.299c-21.145 14.038-41.703 20.851-62.876 20.851-10.896 0-20.089-2.407-28.192-7.37a21.378 21.378 0 0 1-9.781-11.072c-1.526-3.936-3.32-15.33-3.32-47.34V489.495h111.393V386.414h-111.36V267.709h-94.596l-1.644 12.862c-2.822 22.262-7.932 40.851-15.037 55.152-7.193 14.127-16.358 25.846-27.84 35.743a129.928 129.928 0 0 1-42.612 22.994L350 397.808v91.687h52.01V639.71c0 23.848 2.556 41.791 7.693 54.449 5.023 13.305 14.54 26.107 28.458 38.146a135.243 135.243 0 0 0 47.019 25.668c17.942 5.933 38.648 8.988 61.525 8.988 20.53 0 39.53-2.086 56.212-6.167 16.855-3.849 35.652-10.691 57.413-20.939l8.428-3.967V625.145l-22.819 15.154z m-6.548 76.856a242.843 242.843 0 0 1-43.229 15.095c-30.454 7.43-72.716 7.519-101.996-2.203a106.765 106.765 0 0 1-36.974-20.058c-10.015-8.692-16.769-17.504-20.176-26.52-3.789-9.279-5.668-23.994-5.668-43.729V460.126h-51.981v-41.437a154.486 154.486 0 0 0 42.291-24.815 146.553 146.553 0 0 0 35.065-44.932c7.31-14.627 12.627-31.659 16.062-51.865h39.646v118.706h111.393v44.344h-111.39v135.212c0 31.365 1.525 48.163 5.169 57.588 3.847 10.66 11.277 19.385 22.026 25.904 27.281 16.768 65.344 14.741 99.764-1.233v39.558h-0.002z" p-id="3222"></path></svg>