<?xml version="1.0" encoding="utf-8"?>
<!-- Generator: Adobe Illustrator 16.0.0, SVG Export Plug-In . SVG Version: 6.00 Build 0)  -->
<!DOCTYPE svg PUBLIC "-//W3C//DTD SVG 1.1//EN" "http://www.w3.org/Graphics/SVG/1.1/DTD/svg11.dtd">
<svg version="1.1" id="Layer_1" xmlns="http://www.w3.org/2000/svg" xmlns:xlink="http://www.w3.org/1999/xlink" x="0px" y="0px"
	 width="1024px" height="1024px" viewBox="0 0 1024 1024" enable-background="new 0 0 1024 1024" xml:space="preserve">
<path id="twitter_L" fill="#000000" stroke-miterlimit="10" d="M345.822,426.842
	c85.029,42.93,156.886,40.459,156.886,40.459s-27.243-94.937,56.966-137.045c84.199-42.1,142.143,28.883,142.143,28.883
	s14.684-4.034,25.636-8.066c10.935-4.025,26.776-11.229,26.776-11.229l-25.948,46.314l39.94-4.232c0,0-4.906,7.204-20.903,21.862
	c-15.997,14.667-22.579,22.242-22.579,22.242s5.719,114.276-54.485,202.259c-60.205,87.984-137.978,140.793-250.958,151.886
	c-112.989,11.124-186.574-34.655-186.574-34.655s49.417-2.833,80.9-14.856c31.493-12.059,76.771-43.759,76.771-43.759
	s-64.385-19.814-87.499-42.1C279.779,622.52,274,609.304,274,609.304l63.566-0.83c0,0-66.874-35.498-85.859-63.562
	c-18.985-28.065-21.465-55.308-21.465-55.308l48.872,19.728c0,0-40.614-55.229-46.393-98.158
	c-5.779-42.929,7.429-66.043,7.429-66.043S260.785,383.922,345.822,426.842z"/>
</svg>
