<?xml version="1.0" encoding="utf-8"?>
<!-- Generator: Adobe Illustrator 16.0.0, SVG Export Plug-In . SVG Version: 6.00 Build 0)  -->
<!DOCTYPE svg PUBLIC "-//W3C//DTD SVG 1.1//EN" "http://www.w3.org/Graphics/SVG/1.1/DTD/svg11.dtd">
<svg version="1.1" id="Layer_1" xmlns="http://www.w3.org/2000/svg" xmlns:xlink="http://www.w3.org/1999/xlink" x="0px" y="0px"
	 width="1024px" height="1024px" viewBox="0 0 1024 1024" enable-background="new 0 0 1024 1024" xml:space="preserve">
<g>
	<g>
		<defs>
			<rect id="SVGID_1_" x="298" y="342.167" width="439" height="356.49"/>
		</defs>
		<clipPath id="SVGID_2_">
			<use xlink:href="#SVGID_1_"  overflow="visible"/>
		</clipPath>
		<path clip-path="url(#SVGID_2_)" d="M489.442,536.122c-34.568-8.984-73.602,8.224-88.626,38.68
			c-15.281,31.063-0.509,65.53,34.413,76.801c36.143,11.674,78.781-6.194,93.605-39.745
			C543.4,579.066,525.178,545.36,489.442,536.122L489.442,536.122z M463.045,615.41c-7.004,11.218-22.079,16.09-33.397,10.963
			c-11.169-5.077-14.467-18.12-7.411-29.032c6.953-10.864,21.472-15.736,32.689-11.016
			C466.294,591.146,469.952,604.091,463.045,615.41L463.045,615.41z M486.144,585.716c-2.538,4.364-8.172,6.446-12.54,4.621
			c-4.315-1.778-5.683-6.651-3.247-10.917c2.539-4.263,7.916-6.293,12.231-4.618C487.006,576.425,488.58,581.351,486.144,585.716
			L486.144,585.716z M655.936,485.616c7.613,2.435,15.736-1.726,18.224-9.287c5.987-18.579,2.233-39.798-11.778-55.332
			c-14.008-15.533-34.719-21.471-53.803-17.409c-7.817,1.676-12.793,9.339-11.118,17.156c1.674,7.767,9.34,12.792,17.157,11.067
			c9.34-1.98,19.442,0.911,26.346,8.476c6.852,7.614,8.729,17.969,5.734,27.056C644.211,475.007,648.321,483.13,655.936,485.616
			L655.936,485.616z M655.936,485.616"/>
		<path clip-path="url(#SVGID_2_)" d="M706.594,381.051c-28.781-31.928-71.265-44.113-110.503-35.788
			c-9.087,1.929-14.873,10.863-12.894,19.95c1.929,9.085,10.861,14.871,19.948,12.942c27.917-5.938,58.068,2.742,78.576,25.433
			c20.458,22.688,25.989,53.653,17.259,80.758c-2.842,8.833,1.979,18.274,10.812,21.169c8.832,2.84,18.275-1.98,21.114-10.761
			v-0.053C743.142,456.428,735.426,412.927,706.594,381.051L706.594,381.051z M627.358,513.788
			c-6.192-1.829-10.405-3.098-7.157-11.218c7.005-17.614,7.714-32.842,0.152-43.654c-14.212-20.355-53.197-19.238-97.865-0.557
			c0,0-14.011,6.141-10.457-4.974c6.852-22.081,5.837-40.559-4.873-51.269c-24.212-24.265-88.629,0.912-143.905,56.141
			c-41.32,41.37-65.329,85.227-65.329,123.145c0,72.536,92.992,116.646,184.006,116.646c119.286,0,198.624-69.288,198.624-124.363
			C680.554,540.437,652.534,521.605,627.358,513.788L627.358,513.788z M482.182,672.057
			c-72.585,7.159-135.275-25.632-139.994-73.346c-4.723-47.666,50.353-92.13,122.939-99.288
			c72.588-7.208,135.275,25.634,139.997,73.298C609.795,620.385,554.771,664.85,482.182,672.057L482.182,672.057z M482.182,672.057"
			/>
	</g>
</g>
</svg>
