<?xml version="1.0" encoding="utf-8"?>
<!-- Generator: Adobe Illustrator 16.0.0, SVG Export Plug-In . SVG Version: 6.00 Build 0)  -->
<!DOCTYPE svg PUBLIC "-//W3C//DTD SVG 1.1//EN" "http://www.w3.org/Graphics/SVG/1.1/DTD/svg11.dtd">
<svg version="1.1" id="weixin.com" xmlns="http://www.w3.org/2000/svg" xmlns:xlink="http://www.w3.org/1999/xlink" x="0px" y="0px"
	 width="1024px" height="1024px" viewBox="0 0 1024 1024" enable-background="new 0 0 1024 1024" xml:space="preserve">
<path fill="#231815" d="M696,540.163c10.492,0,19-8.498,19-19s-8.508-19-19-19s-19,8.498-19,19S685.508,540.163,696,540.163z
	 M582,540.163c10.492,0,19-8.498,19-19s-8.508-19-19-19s-19,8.498-19,19S571.508,540.163,582,540.163z M515.5,407.163
	c-15.744,0-28.5-12.766-28.5-28.5c0-15.734,12.756-28.5,28.5-28.5s28.5,12.766,28.5,28.5C544,394.397,531.244,407.163,515.5,407.163
	z M363.5,407.163c-15.744,0-28.5-12.766-28.5-28.5c0-15.734,12.756-28.5,28.5-28.5s28.5,12.766,28.5,28.5
	C392,394.397,379.244,407.163,363.5,407.163z M618.951,428.188c-9.75-75.927-86.371-135.023-179.451-135.023
	c-99.685,0-180.5,67.799-180.5,151.426c0,47.666,26.255,93.533,67.289,121.291c2.152,1.447,12.941,6.4,12.237,13.471
	c-1.55,15.476-6.18,26.07-6.18,26.07s12.637-14.547,22.062-21.562c4.192-3.117,11.939-0.777,14.12,0
	c21.783,7.832,45.773,12.153,70.972,12.153c10.066,0,19.946-0.686,29.567-2.021c-0.705-5.418-1.067-10.949-1.067-16.533
	C468,502.331,533.322,440.005,618.951,428.188z M657.054,426.331C752.768,430.077,829,496.3,829,577.458
	c0,50.396-29.4,95.057-74.608,122.535c-8.507,5.195,18.443,48.854,8.897,52.731c-5.883,2.396-47.975-34.549-54.189-32.692
	c-18.943,5.658-39.346,8.74-60.6,8.74c-77.771,0-144.059-41.248-169.441-99.048c-12.831,2.023-26.051,3.082-39.559,3.082
	c-26.951,0-52.77-4.213-76.612-11.932c-11.985-3.877-55.794,41.99-66.676,36.441c-6.485-3.304,19.566-57.537,13.536-61.396
	C255.911,561.538,221,506.282,221,443.976c0-104.276,97.83-188.812,218.5-188.812C553.287,255.163,646.756,330.327,657.054,426.331z
	"/>
</svg>
