<?xml version="1.0" encoding="utf-8"?>
<!-- Generator: Adobe Illustrator 16.0.0, SVG Export Plug-In . SVG Version: 6.00 Build 0)  -->
<!DOCTYPE svg PUBLIC "-//W3C//DTD SVG 1.1//EN" "http://www.w3.org/Graphics/SVG/1.1/DTD/svg11.dtd">
<svg version="1.1" id="Layer_1" xmlns="http://www.w3.org/2000/svg" xmlns:xlink="http://www.w3.org/1999/xlink" x="0px" y="0px"
	 width="1024px" height="1024px" viewBox="0 0 1024 1024" enable-background="new 0 0 1024 1024" xml:space="preserve">
<g>
	<g>
		<defs>
			<rect id="SVGID_1_" x="289" y="390.194" width="447.88" height="291.726"/>
		</defs>
		<clipPath id="SVGID_2_">
			<use xlink:href="#SVGID_1_"  overflow="visible"/>
		</clipPath>
		<path clip-path="url(#SVGID_2_)" d="M611.905,678.083V474.149c0-46.337-37.555-83.906-83.885-83.906H292.219
			c-1.818,0-3.292,1.463-3.292,3.266V678.08c0,1.8,1.473,3.259,3.292,3.259h62.983c1.818,0,3.292-1.466,3.292-3.277V454.708
			c0-1.814,1.471-3.285,3.289-3.285h135.445c25.434,0,46.061,20.614,46.061,46.054v180.58c0,1.812,1.471,3.273,3.279,3.273h62.058
			c1.807,0,3.279-1.461,3.279-3.256"/>
	</g>
	<path d="M484.713,678.062c0,1.813-1.459,3.277-3.28,3.277h-62.97c-1.818,0-3.291-1.466-3.291-3.277V506.903
		c0-1.811,1.473-3.282,3.291-3.282h62.97c1.821,0,3.28,1.472,3.28,3.282v171.165V678.062z M484.713,678.062"/>
	<path d="M736.525,678.062c0,1.813-1.476,3.277-3.294,3.277h-62.955c-1.823,0-3.306-1.466-3.306-3.277V393.537
		c0-1.818,1.482-3.289,3.306-3.289h62.955c1.82,0,3.294,1.471,3.294,3.289V678.062z M736.525,678.062"/>
</g>
</svg>
