<?xml version="1.0" encoding="utf-8"?>
<!-- Generator: Adobe Illustrator 16.0.0, SVG Export Plug-In . SVG Version: 6.00 Build 0)  -->
<!DOCTYPE svg PUBLIC "-//W3C//DTD SVG 1.1//EN" "http://www.w3.org/Graphics/SVG/1.1/DTD/svg11.dtd">
<svg version="1.1" id="Layer_1" xmlns="http://www.w3.org/2000/svg" xmlns:xlink="http://www.w3.org/1999/xlink" x="0px" y="0px"
	 width="1024px" height="1024px" viewBox="0 0 1024 1024" enable-background="new 0 0 1024 1024" xml:space="preserve">
<g>
	<path d="M445.625,775.5c13.975-29.942,29.942-59.887,43.917-91.827c1.995-3.99,7.983-5.989,11.977-5.989h85.839V382.246h-63.88
		v-99.811H749.05v99.811h-61.883v295.438h95.817V775.5H445.625z M242.011,759.529c1.998-3.993,5.988-5.988,7.986-9.981
		c13.972-25.949,27.947-53.896,39.923-77.852c11.977,1.998,21.958,3.993,31.94,3.993h117.776c-1.995,3.993-3.993,7.983-3.993,9.982
		c-15.97,29.942-29.942,59.886-45.912,87.833H240.015C242.011,769.511,242.011,765.518,242.011,759.529L242.011,759.529z
		 M242.011,759.529"/>
	<path d="M363.78,248.5h93.822c-3.99,9.982-9.982,17.965-13.972,25.952c-17.968,33.936-35.933,67.87-51.903,99.811
		c-5.989,9.979,0,19.961,9.981,17.965c1.999,0,5.989-1.995,5.989-3.993c3.993-9.982,11.977-9.982,17.965-9.982h79.85
		c-1.995,5.989-3.993,9.982-5.988,13.975c-23.957,47.911-47.911,93.823-71.864,141.73c-9.982,17.968-5.989,23.957,13.972,23.957
		h43.917c-1.995,3.993-1.995,5.988-1.995,7.983c-11.977,19.964-21.958,41.922-35.933,61.882c-1.995,3.994-7.983,7.987-13.972,7.987
		h-99.811c-21.958,0-33.935-13.975-25.952-33.936c9.982-27.947,21.958-51.903,33.936-79.85c7.986-15.97,15.97-33.936,25.952-51.901
		h-63.877c-27.95,0-37.929-11.977-29.945-39.923c1.995-7.986,3.993-13.975,7.986-19.964
		C307.886,360.287,335.833,304.394,363.78,248.5L363.78,248.5z M363.78,248.5"/>
</g>
</svg>
