<?xml version="1.0" encoding="utf-8"?>
<!-- Generator: Adobe Illustrator 16.0.0, SVG Export Plug-In . SVG Version: 6.00 Build 0)  -->
<!DOCTYPE svg PUBLIC "-//W3C//DTD SVG 1.1//EN" "http://www.w3.org/Graphics/SVG/1.1/DTD/svg11.dtd">
<svg version="1.1" id="Layer_1" xmlns="http://www.w3.org/2000/svg" xmlns:xlink="http://www.w3.org/1999/xlink" x="0px" y="0px"
	 width="1024px" height="1024px" viewBox="0 0 1024 1024" enable-background="new 0 0 1024 1024" xml:space="preserve">
<g>
	<g>
		<defs>
			<rect id="SVGID_1_" x="290" y="235.77" width="473.88" height="553.23"/>
		</defs>
		<clipPath id="SVGID_2_">
			<use xlink:href="#SVGID_1_"  overflow="visible"/>
		</clipPath>
		<path clip-path="url(#SVGID_2_)" d="M490.503,455.201c-2.222,4.066-31.074,54.748-86.44,152.285
			c-6.042,10.236-13.318,15.413-21.826,15.413h-80.274c-9.496,0-14.921-9.248-10.483-17.755l85.085-149.573
			c0.245,0,0.245-0.124,0-0.37l-54.134-93.224c-5.302-9.619,0.371-17.386,10.482-17.386h80.275c9.001,0,16.397,5.055,22.193,15.044
			L490.503,455.201z M761.661,253.095L584.093,565.068v0.371l112.954,205.432c4.808,8.759,0.244,17.39-10.482,17.39h-80.398
			c-9.372,0-16.771-4.934-22.196-15.043L470.031,565.439c4.07-7.153,63.507-111.967,178.553-314.687
			c5.672-9.989,12.824-15.044,21.579-15.044h81.016C761.044,235.708,766.346,243.969,761.661,253.095L761.661,253.095z
			 M761.661,253.095"/>
	</g>
</g>
</svg>
