<?xml version="1.0" encoding="utf-8"?>
<!-- Generator: Adobe Illustrator 16.0.0, SVG Export Plug-In . SVG Version: 6.00 Build 0)  -->
<!DOCTYPE svg PUBLIC "-//W3C//DTD SVG 1.1//EN" "http://www.w3.org/Graphics/SVG/1.1/DTD/svg11.dtd">
<svg version="1.1" id="Layer_1" xmlns="http://www.w3.org/2000/svg" xmlns:xlink="http://www.w3.org/1999/xlink" x="0px" y="0px"
	 width="1024px" height="1024px" viewBox="0 0 1024 1024" enable-background="new 0 0 1024 1024" xml:space="preserve">
<path fill-rule="evenodd" clip-rule="evenodd" d="M164.566,609.36c-8.908-7.486-3.844-20.12-3.844-20.12l41.545-63.205
	l-48.564-71.191c-4.312-6.685-7.353-11.898-9.158-15.643c-1.771-3.744-2.674-6.985-2.674-9.76c0-4.545,1.805-8.456,5.449-11.765
	c3.609-3.292,8.088-4.946,13.402-4.946c5.599,0,9.843,1.537,12.734,4.611c2.892,3.076,7.22,9.209,13.002,18.384l37.702,59.494
	l38.136-59.494c2.29-3.644,4.211-6.718,5.783-9.225c1.554-2.49,3.275-4.831,5.147-7.019c1.888-2.173,3.978-3.844,6.283-5.013
	c2.273-1.153,5.081-1.738,8.39-1.738c5.13,0,9.425,1.637,12.868,4.879c3.443,3.258,5.148,7.019,5.148,11.297
	c0,3.476-0.869,6.952-2.607,10.428c-1.738,3.477-4.713,8.289-8.958,14.439l-105.05,153.147
	C189.299,611.449,173.456,616.848,164.566,609.36z M745.065,432.25c-0.135-6.417,1.269-11.264,4.194-14.522
	c2.925-3.258,6.801-4.929,11.648-5.013c5.047-0.083,9.107,1.454,12.133,4.612c3.023,3.143,4.595,7.938,4.712,14.355l1.336,77.091
	c0.167,8.774,1.305,16.079,3.411,21.926c2.139,5.85,5.781,10.345,10.979,13.503c5.197,3.159,12.418,4.646,21.659,4.495
	c12.783-0.233,21.741-3.677,26.923-10.36c5.146-6.701,7.621-16.746,7.386-30.148l-1.352-77.744
	c-0.118-6.483,1.269-11.331,4.159-14.555c2.875-3.225,6.77-4.879,11.698-4.963c4.914-0.1,8.925,1.42,12.018,4.545
	c3.09,3.109,4.694,7.921,4.829,14.406l1.303,75.387c0.217,12.267-0.835,22.528-3.142,30.766
	c-2.323,8.238-6.835,15.526-13.554,21.843c-5.783,5.38-12.55,9.341-20.272,11.898c-7.735,2.573-16.812,3.942-27.239,4.128
	c-12.4,0.2-23.097-0.903-32.103-3.359c-9.007-2.439-16.361-6.335-22.11-11.698c-5.748-5.348-10.027-12.266-12.817-20.739
	c-2.792-8.473-4.295-18.634-4.496-30.466L745.065,432.25z M642.221,431.916v54.98l64.173-65.042c3.076-3.125,5.716-5.448,7.89-6.952
	c2.154-1.487,5.03-2.239,8.623-2.239c4.712,0,8.506,1.336,11.396,4.01c2.909,2.674,4.347,5.933,4.347,9.793
	c0,4.629-2.441,9.224-7.37,13.787l-39.74,36.583l45.807,63.738c3.225,4.428,5.647,8.288,7.252,11.614
	c1.62,3.309,2.44,6.535,2.44,9.677c0,3.492-1.436,6.519-4.246,9.092c-2.84,2.573-6.667,3.843-11.513,3.843
	c-4.546,0-8.256-0.937-11.114-2.825c-2.873-1.887-5.282-4.411-7.27-7.536c-1.989-3.142-3.743-6-5.298-8.557l-38.636-57.756
	l-26.74,24.918v32.403c0,6.568-1.555,11.431-4.645,14.606c-3.076,3.158-7.036,4.746-11.883,4.746c-2.791,0-5.465-0.702-8.039-2.139
	c-2.572-1.421-4.545-3.344-5.948-5.767c-1.021-2.005-1.638-4.312-1.872-6.952c-0.218-2.64-0.334-6.45-0.334-11.448V431.916
	c0-6.418,1.47-11.232,4.361-14.44c2.892-3.208,6.834-4.812,11.832-4.812c4.931,0,8.907,1.587,11.949,4.762
	C640.684,420.602,642.221,425.431,642.221,431.916z M463.973,506.148v-75.403c0-6.418,1.487-11.23,4.462-14.438
	c2.975-3.21,6.869-4.813,11.716-4.813c5.08,0,9.091,1.604,12.066,4.813c2.975,3.208,4.461,8.021,4.461,14.438v77.107
	c0,8.774,1.003,16.111,3.026,21.993c2.022,5.883,5.598,10.445,10.729,13.687c5.147,3.242,12.333,4.864,21.591,4.864
	c12.767,0,21.793-3.294,27.074-9.894c5.28-6.603,7.921-16.596,7.921-29.999v-77.759c0-6.485,1.471-11.314,4.412-14.489
	c2.94-3.176,6.868-4.763,11.781-4.763c4.929,0,8.907,1.587,11.948,4.763c3.042,3.175,4.58,8.004,4.58,14.489v75.403
	c0,12.267-1.238,22.494-3.71,30.7c-2.44,8.188-7.085,15.391-13.903,21.607c-5.885,5.265-12.703,9.124-20.49,11.549
	c-7.787,2.423-16.879,3.625-27.308,3.625c-12.4,0-23.095-1.303-32.036-3.894c-8.958-2.606-16.26-6.633-21.909-12.082
	c-5.648-5.465-9.792-12.45-12.433-20.973C465.293,528.159,463.973,517.982,463.973,506.148z M423.832,491.861
	c-0.201-11.482-2.273-21.393-6.25-29.748c-3.943-8.339-9.509-14.605-16.679-18.801c-7.153-4.194-15.308-6.199-24.482-6.05
	c-6.534,0.118-12.55,1.421-18.048,3.912c-5.499,2.473-10.211,6.033-14.122,10.679c-3.927,4.629-6.986,10.512-9.175,17.647
	c-2.189,7.136-3.191,15.124-3.058,23.965c0.167,8.907,1.471,16.945,3.911,24.098c2.44,7.17,5.799,13.068,10.094,17.749
	c4.311,4.661,9.225,8.121,14.723,10.378c5.499,2.255,11.532,3.325,18.066,3.226c8.356-0.151,16.01-2.322,22.961-6.503
	c6.919-4.193,12.4-10.561,16.395-19.117C422.161,514.738,424.066,504.26,423.832,491.861z M375.87,411.443
	c16.744-0.285,31.15,2.758,43.283,9.143c12.1,6.383,21.358,15.609,27.725,27.658c6.367,12.049,9.71,26.271,9.994,42.665
	c0.218,12.117-1.287,23.163-4.496,33.124c-3.191,9.976-8.105,18.649-14.74,26.037c-6.617,7.402-14.807,13.103-24.566,17.129
	c-9.776,4.01-21.023,6.133-33.707,6.35c-12.618,0.234-23.948-1.554-34.009-5.33c-10.061-3.794-18.483-9.227-25.285-16.312
	c-6.801-7.068-11.999-15.659-15.592-25.719c-3.576-10.06-5.481-20.974-5.682-32.738c-0.217-12.049,1.371-23.13,4.747-33.24
	c3.392-10.11,8.39-18.767,15.023-25.936c6.635-7.169,14.756-12.719,24.383-16.628C352.573,413.732,363.536,411.661,375.87,411.443z"
	/>
</svg>
